<svg version="1.1" viewBox="0.0 0.0 49.0 68.0" fill="none" stroke="none" stroke-linecap="square" stroke-miterlimit="10" preserveAspectRatio="none" width="49" height="68" xmlns:xlink="http://www.w3.org/1999/xlink" xmlns="http://www.w3.org/2000/svg"><clipPath id="id_0"><path d="M0 0L49.0 0L49.0 68.0L0 68.0L0 0Z" clip-rule="nonzero"/></clipPath><path fill="#000000" fill-opacity="0.0" clip-path="url(#id_0)" d="M-539.02374 -364.01797L588.02374 -364.01797L588.02374 432.01797L-539.02374 432.01797Z" fill-rule="evenodd"/><path fill="#156082" clip-path="url(#id_0)" d="M40.385883 0.66894394L40.385883 0.66894394C44.77278 0.66894394 48.329063 4.2213607 48.329063 8.603489L48.329063 59.396618C48.329063 61.500988 47.492195 63.519173 46.00256 65.00719C44.512924 66.4952 42.492546 67.33116 40.385883 67.33116L8.614117 67.33116C4.2272196 67.33116 0.6709369 63.778744 0.6709369 59.396618L0.6709369 8.603489C0.6709369 4.2213607 4.2272196 0.66894394 8.614117 0.66894394Z" fill-rule="evenodd"/><path stroke="#082836" stroke-width="1.3379835665024074" stroke-miterlimit="800.0" stroke-linecap="butt" clip-path="url(#id_0)" d="M40.385883 0.66894394L40.385883 0.66894394C44.77278 0.66894394 48.329063 4.2213607 48.329063 8.603489L48.329063 59.396618C48.329063 61.500988 47.492195 63.519173 46.00256 65.00719C44.512924 66.4952 42.492546 67.33116 40.385883 67.33116L8.614117 67.33116C4.2272196 67.33116 0.6709369 63.778744 0.6709369 59.396618L0.6709369 8.603489C0.6709369 4.2213607 4.2272196 0.66894394 8.614117 0.66894394Z" fill-rule="evenodd"/><path fill="#ffffff" clip-path="url(#id_0)" d="M26.54823 32.871742Q27.991528 30.442743 30.015282 29.706207L30.015282 29.565168L25.98346 29.565168Q25.559883 29.09504 25.952084 29.09504L29.544641 29.09504Q27.56795 27.731665 26.328596 25.334007Q26.328596 25.145956 26.469788 25.255651Q27.991528 27.62197 30.015282 28.812962L30.015282 25.506388L30.219227 25.506388L30.219227 29.09504L31.740965 29.09504L31.740965 26.0392L31.944908 26.0392L31.944908 29.09504L33.717655 29.09504L33.607838 29.706207Q33.435272 29.988285 33.35683 29.565168L31.944908 29.565168L31.944908 31.602396L32.478302 32.13521L31.991974 32.80906Q31.803717 33.012783 31.740965 32.80906L31.740965 29.565168L30.219227 29.565168L30.219227 32.338932L30.752619 32.871742L30.250603 33.545597Q30.078033 33.749317 30.015282 33.545597L30.015282 29.909931Q28.101343 30.787504 27.003181 33.60828Q26.94043 33.232178 26.54823 32.871742ZM29.199505 38.121517Q27.25419 36.67979 26.265844 34.59555Q26.234468 34.454514 26.37566 34.56421Q27.818958 36.789486 30.10941 38.121517L31.913532 38.121517L31.913532 34.532867L32.133163 34.532867L32.133163 38.121517L33.890224 38.121517L33.780407 38.685673Q33.68628 39.328182 33.403896 38.59165L32.133163 38.59165L32.133163 41.412422L32.58812 41.866882L32.16454 42.462376Q31.991974 42.68177 31.913532 42.462376L31.913532 38.59165L30.156473 38.59165Q29.623081 38.905067 29.199505 39.218487Q29.905466 39.860996 31.63115 40.519176L31.45858 41.02065Q31.286013 41.443764 31.207571 40.87961Q30.752619 40.628876 30.297667 40.346798Q30.156473 40.769913 30.046658 40.989307Q29.79565 41.443764 29.513266 41.647488Q29.168129 41.929565 28.948496 41.6945Q28.775928 41.475105 29.23088 41.22437Q29.936842 40.848267 30.156473 40.2371Q29.403448 39.7513 29.058311 39.328182Q27.426758 40.56619 26.68942 42.431034Q26.469788 42.070602 26.234468 41.866882Q27.144373 39.95502 29.764273 38.59165L26.046211 38.59165Q25.622635 38.121517 26.014835 38.121517L29.199505 38.121517ZM31.521332 36.711132Q31.348764 37.071564 31.238947 36.64845Q30.783995 36.36637 30.329042 36.084293Q30.156473 36.53875 29.936842 36.789486Q29.654457 37.134247 29.340696 37.18126Q29.08969 37.2126 29.058311 36.99321Q29.026936 36.85217 29.372072 36.711132Q29.827026 36.53875 30.219227 36.05295Q29.30932 35.441784 28.634735 34.642563Q28.60336 34.454514 28.744553 34.56421Q29.936842 35.629833 31.740965 36.288013L31.521332 36.711132Z" fill-rule="nonzero"/><path fill="#ffffff" clip-path="url(#id_0)" d="M21.37118 23.698954L18.92385 23.698954L18.92385 24.827265Q18.92385 25.219038 19.096416 25.391418Q19.268986 25.57947 19.78669 25.642155L19.78669 25.814535L17.684494 25.814535L17.684494 25.642155Q18.045319 25.626484 18.2022 25.532457Q18.374767 25.454103 18.453207 25.297394Q18.547337 25.140684 18.547337 24.827265L18.547337 23.698954L16.60202 23.698954Q16.13138 23.698954 15.9745 23.761639Q15.864684 23.808651 15.786243 23.94969Q15.676428 24.153412 15.676428 24.372807L15.676428 24.5922L15.5038595 24.5922L15.5038595 21.943806L15.676428 21.943806L15.676428 22.163198Q15.676428 22.539303 15.89606 22.711683Q16.037252 22.82138 16.60202 22.82138L20.602467 22.82138Q21.073109 22.82138 21.229988 22.758696Q21.339804 22.711683 21.418245 22.570644Q21.52806 22.382593 21.52806 22.163198L21.52806 21.943806L21.700628 21.943806L21.700628 26.551071L20.335772 26.613754L20.335772 26.441374Q20.775036 26.331676 20.97898 26.174967Q21.182924 26.018257 21.277052 25.783194Q21.37118 25.548128 21.37118 25.062328L21.37118 23.698954ZM19.692562 30.95498L17.151102 30.95498Q16.429453 30.95498 16.256884 30.986322Q16.100004 31.017664 16.037252 31.09602Q15.9745 31.174374 15.9745 31.2684Q15.9745 31.40944 16.05294 31.59749L15.89606 31.660173L15.378355 30.406496L15.378355 30.202774L16.256884 30.202774Q15.676428 29.65429 15.519547 29.372213Q15.378355 29.090136 15.378355 28.776716Q15.378355 28.431953 15.582299 28.165548Q15.786243 27.914812 16.100004 27.805115Q16.429453 27.71109 17.00991 27.71109L18.876785 27.71109Q19.174856 27.71109 19.284674 27.648405Q19.410177 27.585722 19.472929 27.460354Q19.53568 27.334986 19.519993 27.005896L19.692562 27.005896L19.692562 28.463297L16.884405 28.463297Q16.30395 28.463297 16.115692 28.667019Q15.943124 28.87074 15.943124 29.152819Q15.943124 29.35654 16.05294 29.607277Q16.178444 29.858013 16.539268 30.202774L18.908161 30.202774Q19.268986 30.202774 19.39449 30.061735Q19.519993 29.936367 19.519993 29.528923L19.692562 29.528923L19.692562 30.95498ZM21.073109 33.172424L19.692562 33.172424L19.692562 34.159695L19.378801 34.159695L19.378801 33.172424L16.649086 33.172424Q16.256884 33.172424 16.100004 33.28212Q15.958812 33.407486 15.958812 33.59554Q15.958812 33.736576 16.05294 33.877617Q16.147068 34.018654 16.335325 34.09701L16.335325 34.28506Q15.880372 34.128353 15.66074 33.830605Q15.441107 33.532856 15.441107 33.219437Q15.441107 33.015713 15.550923 32.81199Q15.66074 32.60827 15.880372 32.51424Q16.100004 32.420216 16.554956 32.420216L19.378801 32.420216L19.378801 31.762035L19.519993 31.762035Q19.62981 32.01277 19.86513 32.263508Q20.10045 32.529915 20.4299 32.749306Q20.602467 32.843334 21.073109 33.031384L21.073109 33.172424ZM19.692562 38.232048L17.151102 38.232048Q16.429453 38.232048 16.256884 38.26339Q16.100004 38.294735 16.037252 38.37309Q15.9745 38.451443 15.9745 38.545467Q15.9745 38.68651 16.05294 38.874557L15.89606 38.937244L15.378355 37.683567L15.378355 37.479843L16.256884 37.479843Q15.676428 36.93136 15.519547 36.64928Q15.378355 36.367203 15.378355 36.053783Q15.378355 35.709023 15.582299 35.442616Q15.786243 35.191883 16.100004 35.082184Q16.429453 34.98816 17.00991 34.98816L18.876785 34.98816Q19.174856 34.98816 19.284674 34.925476Q19.410177 34.86279 19.472929 34.737423Q19.53568 34.612057 19.519993 34.282967L19.692562 34.282967L19.692562 35.740364L16.884405 35.740364Q16.30395 35.740364 16.115692 35.944088Q15.943124 36.14781 15.943124 36.42989Q15.943124 36.63361 16.05294 36.884346Q16.178444 37.135082 16.539268 37.479843L18.908161 37.479843Q19.268986 37.479843 19.39449 37.338802Q19.519993 37.213436 19.519993 36.805992L19.692562 36.805992L19.692562 38.232048ZM19.818066 40.465164L18.876785 40.465164Q19.818066 40.982304 19.818066 41.54646Q19.818066 41.797195 19.661186 41.953903Q19.504305 42.126286 19.31605 42.126286Q19.127792 42.126286 19.002289 42.00092Q18.876785 41.87555 18.876785 41.71884Q18.876785 41.56213 19.033665 41.35841Q19.206234 41.154686 19.206234 41.06066Q19.206234 40.982304 19.112104 40.88828Q18.92385 40.684555 18.484585 40.465164L16.476517 40.465164Q16.13138 40.465164 15.958812 40.543518Q15.833308 40.6062 15.73918 40.747242Q15.66074 40.90395 15.66074 41.186028L15.5038595 41.186028L15.5038595 39.054775L15.66074 39.054775Q15.66074 39.368195 15.7705555 39.524906Q15.848996 39.6346 16.005877 39.681614Q16.084316 39.712955 16.44514 39.712955L18.076694 39.712955Q18.798344 39.712955 18.939537 39.681614Q19.080729 39.650272 19.14348 39.57192Q19.206234 39.49356 19.206234 39.368195Q19.206234 39.227158 19.14348 39.054775L19.300362 39.007763L19.818066 40.27711L19.818066 40.465164ZM18.108072 43.0635Q17.182478 43.04783 16.649086 43.502285Q16.115692 43.972416 16.115692 44.583584Q16.115692 44.991028 16.335325 45.288776Q16.570644 45.602196 17.119726 45.80592L17.025599 45.946957Q16.398077 45.852932 15.880372 45.3828Q15.378355 44.928345 15.378355 44.238823Q15.378355 43.486614 15.958812 42.93813Q16.554956 42.40532 17.543303 42.40532Q18.625776 42.40532 19.221922 42.9538Q19.818066 43.502285 19.818066 44.332848Q19.818066 45.03804 19.347425 45.4925Q18.892473 45.946957 18.108072 45.946957L18.108072 43.0635ZM18.374767 43.0635L18.374767 44.991028Q18.782656 44.975357 18.955225 44.897003Q19.206234 44.787304 19.347425 44.552242Q19.488617 44.332848 19.488617 44.08211Q19.488617 43.70601 19.190544 43.40826Q18.908161 43.11051 18.374767 43.0635Z" fill-rule="nonzero"/></svg>