<svg version="1.1" viewBox="0.0 0.0 49.0 68.0" fill="none" stroke="none" stroke-linecap="square" stroke-miterlimit="10" preserveAspectRatio="none" width="49" height="68" xmlns:xlink="http://www.w3.org/1999/xlink" xmlns="http://www.w3.org/2000/svg"><clipPath id="id_0"><path d="M0 0L49.0 0L49.0 68.0L0 68.0L0 0Z" clip-rule="nonzero"/></clipPath><path fill="#000000" fill-opacity="0.0" clip-path="url(#id_0)" d="M-539.02374 -364.01797L588.02374 -364.01797L588.02374 432.01797L-539.02374 432.01797Z" fill-rule="evenodd"/><path fill="#156082" clip-path="url(#id_0)" d="M0.6709369 8.603489L0.6709369 8.603489C0.6709369 4.2213607 4.2272196 0.66894394 8.614117 0.66894394L40.385883 0.66894394L40.385883 0.66894394C42.492546 0.66894394 44.512924 1.5049025 46.00256 2.9929183C47.492195 4.480934 48.329063 6.499117 48.329063 8.603489L48.329063 59.396618C48.329063 63.778744 44.77278 67.33116 40.385883 67.33116L8.614117 67.33116C4.2272196 67.33116 0.6709369 63.778744 0.6709369 59.396618Z" fill-rule="evenodd"/><path stroke="#082836" stroke-width="1.3379835665024074" stroke-miterlimit="800.0" stroke-linecap="butt" clip-path="url(#id_0)" d="M0.6709369 8.603489L0.6709369 8.603489C0.6709369 4.2213607 4.2272196 0.66894394 8.614117 0.66894394L40.385883 0.66894394L40.385883 0.66894394C42.492546 0.66894394 44.512924 1.5049025 46.00256 2.9929183C47.492195 4.480934 48.329063 6.499117 48.329063 8.603489L48.329063 59.396618C48.329063 63.778744 44.77278 67.33116 40.385883 67.33116L8.614117 67.33116C4.2272196 67.33116 0.6709369 63.778744 0.6709369 59.396618Z" fill-rule="evenodd"/><path fill="#ffffff" clip-path="url(#id_0)" d="M21.676157 30.223976Q20.107353 30.223976 19.542585 29.65982Q18.915064 29.032982 18.915064 28.218092Q18.915064 27.4032 19.417082 26.58831Q21.174139 23.83022 25.692291 20.006502L19.166073 20.006502L19.166073 19.6304L25.943298 19.6304L26.88458 18.878193L27.951366 19.693083Q28.39063 20.194555 27.76311 20.194555Q26.759077 20.194555 26.31981 20.570658Q23.495968 22.952644 22.115421 24.457058Q19.793594 26.964413 19.793594 27.967356Q19.793594 28.719563 20.232859 29.095665Q20.672123 29.47177 22.36643 29.47177L29.269161 29.47177Q29.708426 29.47177 29.89668 28.907614L30.398699 25.77342Q30.524202 25.397316 30.649706 25.77342L30.649706 28.782246Q30.649706 29.346401 31.214476 29.409084Q31.465485 29.65982 30.963467 29.97324Q30.46145 30.223976 29.708426 30.223976L21.676157 30.223976Z" fill-rule="nonzero"/><path fill="#ffffff" clip-path="url(#id_0)" d="M26.562977 43.98309Q27.676826 44.218155 28.225906 44.735294Q28.978931 45.45616 28.978931 46.490444Q28.978931 47.289665 28.476915 48.01053Q27.974897 48.73139 27.096369 49.076153Q26.233528 49.405243 24.429405 49.405243L19.409237 49.405243L19.409237 49.107494L19.817125 49.107494Q20.476023 49.107494 20.774096 48.68438Q20.946663 48.417973 20.946663 47.524727L20.946663 40.660843Q20.946663 39.673573 20.727032 39.407166Q20.41327 39.062405 19.817125 39.062405L19.409237 39.062405L19.409237 38.780327L24.005829 38.780327Q25.292246 38.780327 26.076647 38.96838Q27.253248 39.250458 27.865082 39.97132Q28.492603 40.676514 28.492603 41.61677Q28.492603 42.415993 28.006275 43.04283Q27.519945 43.66967 26.562977 43.98309ZM22.452713 43.55997Q22.750786 43.606987 23.11161 43.63833Q23.488123 43.66967 23.943075 43.66967Q25.088303 43.66967 25.65307 43.418934Q26.233528 43.168198 26.5316 42.66673Q26.84536 42.149586 26.84536 41.55409Q26.84536 40.61383 26.076647 39.95565Q25.323622 39.29747 23.864635 39.29747Q23.080235 39.29747 22.452713 39.46985L22.452713 43.55997ZM22.452713 48.637367Q23.36262 48.84109 24.256836 48.84109Q25.668758 48.84109 26.406096 48.214252Q27.15912 47.571743 27.15912 46.63148Q27.15912 46.004642 26.813984 45.44049Q26.484535 44.860664 25.715822 44.531574Q24.962797 44.202484 23.848948 44.202484Q23.36262 44.202484 23.017483 44.218155Q22.672346 44.233826 22.452713 44.280838L22.452713 48.637367Z" fill-rule="nonzero"/></svg>