<svg version="1.1" viewBox="0.0 0.0 49.0 68.0" fill="none" stroke="none" stroke-linecap="square" stroke-miterlimit="10" preserveAspectRatio="none" width="49" height="68" xmlns:xlink="http://www.w3.org/1999/xlink" xmlns="http://www.w3.org/2000/svg"><clipPath id="id_0"><path d="M0 0L49.0 0L49.0 68.0L0 68.0L0 0Z" clip-rule="nonzero"/></clipPath><path fill="#000000" fill-opacity="0.0" clip-path="url(#id_0)" d="M-539.02374 -364.01797L588.02374 -364.01797L588.02374 432.01797L-539.02374 432.01797Z" fill-rule="evenodd"/><path fill="#156082" clip-path="url(#id_0)" d="M0.6709369 8.603489L0.6709369 8.603489C0.6709369 4.2213607 4.2272196 0.66894394 8.614117 0.66894394L40.385883 0.66894394L40.385883 0.66894394C42.492546 0.66894394 44.512924 1.5049025 46.00256 2.9929183C47.492195 4.480934 48.329063 6.499117 48.329063 8.603489L48.329063 59.396618C48.329063 63.778744 44.77278 67.33116 40.385883 67.33116L8.614117 67.33116C4.2272196 67.33116 0.6709369 63.778744 0.6709369 59.396618Z" fill-rule="evenodd"/><path stroke="#082836" stroke-width="1.3379835665024074" stroke-miterlimit="800.0" stroke-linecap="butt" clip-path="url(#id_0)" d="M0.6709369 8.603489L0.6709369 8.603489C0.6709369 4.2213607 4.2272196 0.66894394 8.614117 0.66894394L40.385883 0.66894394L40.385883 0.66894394C42.492546 0.66894394 44.512924 1.5049025 46.00256 2.9929183C47.492195 4.480934 48.329063 6.499117 48.329063 8.603489L48.329063 59.396618C48.329063 63.778744 44.77278 67.33116 40.385883 67.33116L8.614117 67.33116C4.2272196 67.33116 0.6709369 63.778744 0.6709369 59.396618Z" fill-rule="evenodd"/><path fill="#ffffff" clip-path="url(#id_0)" d="M18.993504 32.012974Q18.538551 32.012974 18.94644 31.809252Q22.868446 30.68094 22.868446 27.217657L21.691845 27.217657L21.691845 28.298954Q21.032948 28.910122 21.032948 28.345966L21.032948 24.020779Q19.919098 25.243114 18.491488 25.995321Q18.22479 26.058004 18.38167 25.854282Q21.189827 23.660347 22.413494 20.557495L23.119455 21.011953Q23.888168 21.419397 22.868446 21.466412Q22.256613 22.641733 21.597717 23.456625L21.80166 23.660347L26.49238 23.660347L26.853205 23.299915L27.308157 23.660347Q27.668982 23.911081 27.308157 24.067791L27.308157 27.687786Q26.64926 28.298954 26.64926 27.734798L26.64926 27.217657L25.425594 27.217657L25.425594 30.430206Q25.425594 30.633928 25.62954 30.633928L28.735767 30.633928Q29.19072 30.633928 29.300537 30.132458L29.645674 28.39298Q29.75549 28.23627 29.802553 28.39298L29.802553 30.226482Q29.802553 30.477219 30.116314 30.586916Q30.571266 30.743626 30.006498 31.104057Q29.75549 31.245096 29.237783 31.245096L25.362843 31.245096Q24.751009 31.245096 24.751009 30.633928L24.751009 27.217657L23.590096 27.217657Q23.48028 31.104057 18.993504 32.012974ZM21.691845 26.919909L26.64926 26.919909L26.64926 23.958096L21.691845 23.958096L21.691845 26.919909ZM27.465038 22.89247Q28.625952 24.020779 30.728148 24.835669Q30.163378 25.039392 29.802553 25.49385Q26.586508 23.55065 25.268715 20.49481L25.566786 20.400785Q26.241371 21.77983 27.465038 22.89247Z" fill-rule="nonzero"/><path fill="#ffffff" clip-path="url(#id_0)" d="M30.70381 37.983612L30.70381 38.23435Q30.358673 38.23435 30.139042 38.35972Q29.935097 38.469414 29.731153 38.814175Q29.605648 39.04924 29.323263 39.911144L26.860245 47.041435L26.593548 47.041435L24.569792 41.384212L22.561726 47.041435L22.326405 47.041435L19.706505 39.69175Q19.408432 38.861187 19.329992 38.72015Q19.204489 38.469414 18.969168 38.35972Q18.749535 38.23435 18.357334 38.23435L18.357334 37.983612L21.636131 37.983612L21.636131 38.23435L21.479252 38.23435Q21.134115 38.23435 20.94586 38.39106Q20.77329 38.547768 20.77329 38.767162Q20.77329 38.986557 21.055676 39.817116L22.797047 44.784813L24.27172 40.553654L24.020712 39.817116L23.801079 39.22162Q23.659887 38.89253 23.503008 38.641792Q23.408878 38.516426 23.283375 38.438072Q23.126495 38.312702 22.953926 38.26569Q22.84411 38.23435 22.561726 38.23435L22.561726 37.983612L26.01309 37.983612L26.01309 38.23435L25.777771 38.23435Q25.416946 38.23435 25.244377 38.39106Q25.07181 38.547768 25.07181 38.814175Q25.07181 39.143265 25.369883 39.973827L27.064188 44.784813L28.758495 39.911144Q29.04088 39.096252 29.04088 38.782833Q29.04088 38.62612 28.94675 38.500755Q28.852623 38.37539 28.711432 38.312702Q28.460423 38.23435 28.068222 38.23435L28.068222 37.983612L30.70381 37.983612Z" fill-rule="nonzero"/></svg>