<svg version="1.1" viewBox="0.0 0.0 49.0 68.0" fill="none" stroke="none" stroke-linecap="square" stroke-miterlimit="10" preserveAspectRatio="none" width="49" height="68" xmlns:xlink="http://www.w3.org/1999/xlink" xmlns="http://www.w3.org/2000/svg"><clipPath id="id_0"><path d="M0 0L49.0 0L49.0 68.0L0 68.0L0 0Z" clip-rule="nonzero"/></clipPath><path fill="#000000" fill-opacity="0.0" clip-path="url(#id_0)" d="M-539.02374 -363.80237L588.02374 -363.80237L588.02374 431.80237L-539.02374 431.80237Z" fill-rule="evenodd"/><path fill="#156082" clip-path="url(#id_0)" d="M0.6709369 8.6005125L0.6709369 8.6005125C0.6709369 4.220758 4.2272196 0.67026544 8.614117 0.67026544L40.385883 0.67026544L40.385883 0.67026544C42.492546 0.67026544 44.512924 1.5057712 46.00256 2.992981C47.492195 4.4801908 48.329063 6.49728 48.329063 8.6005125L48.329063 59.399487C48.329063 63.779243 44.77278 67.329735 40.385883 67.329735L8.614117 67.329735C4.2272196 67.329735 0.6709369 63.779243 0.6709369 59.399487Z" fill-rule="evenodd"/><path stroke="#082836" stroke-width="1.3376211447112751" stroke-miterlimit="800.0" stroke-linecap="butt" clip-path="url(#id_0)" d="M0.6709369 8.6005125L0.6709369 8.6005125C0.6709369 4.220758 4.2272196 0.67026544 8.614117 0.67026544L40.385883 0.67026544L40.385883 0.67026544C42.492546 0.67026544 44.512924 1.5057712 46.00256 2.992981C47.492195 4.4801908 48.329063 6.49728 48.329063 8.6005125L48.329063 59.399487C48.329063 63.779243 44.77278 67.329735 40.385883 67.329735L8.614117 67.329735C4.2272196 67.329735 0.6709369 63.779243 0.6709369 59.399487Z" fill-rule="evenodd"/><path fill="#ffffff" clip-path="url(#id_0)" d="M19.98185 25.840475L19.98185 27.218773Q19.166073 27.970572 19.166073 27.281424L19.166073 18.071884L20.107353 18.698383L28.767143 18.698383L29.206408 18.134533L30.210442 18.823683Q30.712458 19.199583 29.771177 19.324883L29.771177 26.780224Q28.9554 27.532022 28.9554 26.842873L28.9554 25.840475L24.939266 25.840475L24.939266 31.478968Q24.123487 32.230766 24.123487 31.541618L24.123487 25.840475L19.98185 25.840475ZM24.123487 25.464575L24.123487 22.394728L19.98185 22.394728L19.98185 25.464575L24.123487 25.464575ZM24.123487 22.01883L24.123487 19.074282L19.98185 19.074282L19.98185 22.01883L24.123487 22.01883ZM28.9554 25.464575L28.9554 22.394728L24.939266 22.394728L24.939266 25.464575L28.9554 25.464575ZM28.9554 22.01883L28.9554 19.074282L24.939266 19.074282L24.939266 22.01883L28.9554 22.01883Z" fill-rule="nonzero"/><path fill="#ffffff" clip-path="url(#id_0)" d="M26.057037 45.841465L21.931087 45.841465L21.209438 47.51735Q20.942741 48.128185 20.942741 48.441437Q20.942741 48.676373 21.178062 48.864323Q21.413382 49.052273 22.182095 49.09926L22.182095 49.396847L18.824858 49.396847L18.824858 49.09926Q19.499443 48.989624 19.6877 48.801674Q20.095589 48.425774 20.581917 47.26675L24.315666 38.527084L24.598051 38.527084L28.300425 47.360725Q28.739689 48.425774 29.100513 48.754684Q29.477026 49.067936 30.120235 49.09926L30.120235 49.396847L25.931534 49.396847L25.931534 49.09926Q26.559053 49.067936 26.778687 48.89565Q27.014008 48.7077 27.014008 48.457096Q27.014008 48.112522 26.700247 47.360725L26.057037 45.841465ZM25.837404 45.26195L24.033281 40.970432L22.182095 45.26195L25.837404 45.26195Z" fill-rule="nonzero"/></svg>