<svg version="1.1" viewBox="0.0 0.0 49.0 68.0" fill="none" stroke="none" stroke-linecap="square" stroke-miterlimit="10" preserveAspectRatio="none" width="49" height="68" xmlns:xlink="http://www.w3.org/1999/xlink" xmlns="http://www.w3.org/2000/svg"><clipPath id="id_0"><path d="M0 0L49.0 0L49.0 68.0L0 68.0L0 0Z" clip-rule="nonzero"/></clipPath><path fill="#000000" fill-opacity="0.0" clip-path="url(#id_0)" d="M-539.02374 -364.01797L588.02374 -364.01797L588.02374 432.01797L-539.02374 432.01797Z" fill-rule="evenodd"/><path fill="#156082" clip-path="url(#id_0)" d="M40.385883 0.66894394L40.385883 0.66894394C44.77278 0.66894394 48.329063 4.2213607 48.329063 8.603489L48.329063 59.396618C48.329063 61.500988 47.492195 63.519173 46.00256 65.00719C44.512924 66.4952 42.492546 67.33116 40.385883 67.33116L8.614117 67.33116C4.2272196 67.33116 0.6709369 63.778744 0.6709369 59.396618L0.6709369 8.603489C0.6709369 4.2213607 4.2272196 0.66894394 8.614117 0.66894394Z" fill-rule="evenodd"/><path stroke="#082836" stroke-width="1.3379835665024074" stroke-miterlimit="800.0" stroke-linecap="butt" clip-path="url(#id_0)" d="M40.385883 0.66894394L40.385883 0.66894394C44.77278 0.66894394 48.329063 4.2213607 48.329063 8.603489L48.329063 59.396618C48.329063 61.500988 47.492195 63.519173 46.00256 65.00719C44.512924 66.4952 42.492546 67.33116 40.385883 67.33116L8.614117 67.33116C4.2272196 67.33116 0.6709369 63.778744 0.6709369 59.396618L0.6709369 8.603489C0.6709369 4.2213607 4.2272196 0.66894394 8.614117 0.66894394Z" fill-rule="evenodd"/><path fill="#ffffff" clip-path="url(#id_0)" d="M29.340696 34.219448L29.340696 37.040222L29.79565 37.49468L29.372072 38.058834Q29.199505 38.262558 29.121065 38.058834L29.121065 34.360485Q27.505198 35.520138 26.830612 38.199875Q26.658045 37.66706 26.328596 37.557365Q27.285566 35.159706 29.026936 34.219448L25.90502 34.219448Q25.481443 33.749317 25.873644 33.749317L28.775928 33.749317Q26.720797 31.85313 26.093275 29.941273Q26.046211 29.706207 26.265844 29.909931Q27.222813 31.821789 29.121065 33.46724L29.121065 30.22335L29.340696 30.22335L29.340696 33.749317L30.438858 33.749317L30.438858 31.915815L30.156473 31.915815Q29.732897 31.461357 30.10941 31.461357L33.639217 31.461357L33.35683 31.962828L33.35683 35.943253L33.639217 36.146976L33.29408 36.64845Q33.12151 36.85217 33.04307 36.50741L30.297667 36.50741Q29.905466 36.05295 30.297667 36.05295L30.438858 36.05295L30.438858 34.219448L29.340696 34.219448ZM31.991974 31.915815L31.991974 33.749317L33.152885 33.749317L33.152885 31.915815L31.991974 31.915815ZM31.991974 36.05295L33.152885 36.05295L33.152885 34.219448L31.991974 34.219448L31.991974 36.05295ZM30.642803 36.05295L31.77234 36.05295L31.77234 34.219448L30.642803 34.219448L30.642803 36.05295ZM30.642803 31.915815L30.642803 33.749317L31.77234 33.749317L31.77234 31.915815L30.642803 31.915815Z" fill-rule="nonzero"/><path fill="#ffffff" clip-path="url(#id_0)" d="M15.5038595 28.360594L15.5038595 26.715141L18.406143 24.61523Q18.390455 24.380167 18.390455 24.239128Q18.390455 24.176445 18.390455 24.09809Q18.406143 24.035406 18.406143 23.972721L16.60202 23.972721Q16.021564 23.972721 15.880372 24.09809Q15.676428 24.27047 15.676428 24.61523L15.676428 24.865967L15.5038595 24.865967L15.5038595 22.201902L15.676428 22.201902L15.676428 22.436966Q15.676428 22.828741 15.927436 23.001122Q16.068628 23.095148 16.60202 23.095148L20.602467 23.095148Q21.198612 23.095148 21.339804 22.96978Q21.52806 22.7974 21.52806 22.436966L21.52806 22.201902L21.700628 22.201902L21.700628 24.45852Q21.700628 25.445793 21.559437 25.915922Q21.418245 26.386051 21.026045 26.715141Q20.64953 27.044231 20.116138 27.044231Q19.53568 27.044231 19.112104 26.668129Q18.688528 26.292025 18.51596 25.508476L16.743214 26.793497Q16.13138 27.232283 15.927436 27.545702Q15.723492 27.859121 15.676428 28.360594L15.5038595 28.360594ZM18.688528 23.972721Q18.688528 24.051077 18.688528 24.11376Q18.688528 24.176445 18.688528 24.223457Q18.688528 25.116703 19.06504 25.55549Q19.457241 26.009947 20.053387 26.009947Q20.633842 26.009947 20.994667 25.649515Q21.355492 25.289083 21.355492 24.677916Q21.355492 24.42718 21.277052 23.972721L18.688528 23.972721ZM18.108072 29.288225Q17.182478 29.272554 16.649086 29.727013Q16.115692 30.197142 16.115692 30.80831Q16.115692 31.215755 16.335325 31.513504Q16.570644 31.826923 17.119726 32.030647L17.025599 32.171684Q16.398077 32.07766 15.880372 31.607529Q15.378355 31.15307 15.378355 30.463549Q15.378355 29.711342 15.958812 29.162859Q16.554956 28.630045 17.543303 28.630045Q18.625776 28.630045 19.221922 29.17853Q19.818066 29.727013 19.818066 30.557575Q19.818066 31.262768 19.347425 31.717226Q18.892473 32.171684 18.108072 32.171684L18.108072 29.288225ZM18.374767 29.288225L18.374767 31.215755Q18.782656 31.200085 18.955225 31.121729Q19.206234 31.012033 19.347425 30.776968Q19.488617 30.557575 19.488617 30.306839Q19.488617 29.930737 19.190544 29.632988Q18.908161 29.33524 18.374767 29.288225ZM19.818066 35.430893L18.390455 35.430893L18.390455 35.289856Q19.06504 35.117474 19.300362 34.835396Q19.551369 34.568993 19.551369 34.145874Q19.551369 33.832455 19.378801 33.62873Q19.206234 33.44068 19.002289 33.44068Q18.75128 33.44068 18.563025 33.58172Q18.374767 33.72276 18.170824 34.161545L17.841375 34.819725Q17.386423 35.744312 16.649086 35.744312Q16.068628 35.744312 15.723492 35.305527Q15.378355 34.882412 15.378355 34.349598Q15.378355 33.973495 15.519547 33.472023Q15.550923 33.330986 15.550923 33.221287Q15.550923 33.127262 15.441107 33.06458L15.441107 32.907867L16.931469 32.907867L16.931469 33.06458Q16.288261 33.189945 15.958812 33.550377Q15.645052 33.91081 15.645052 34.36527Q15.645052 34.678688 15.833308 34.86674Q16.021564 35.07046 16.272573 35.07046Q16.586332 35.07046 16.805965 34.851067Q17.025599 34.631676 17.355045 33.957825Q17.684494 33.29964 17.95119 33.09592Q18.2022 32.892197 18.610088 32.892197Q19.127792 32.892197 19.472929 33.236958Q19.818066 33.59739 19.818066 34.161545Q19.818066 34.41228 19.70825 34.757042Q19.645498 34.992107 19.645498 35.07046Q19.645498 35.148815 19.676874 35.18016Q19.70825 35.227173 19.818066 35.289856L19.818066 35.430893ZM19.692562 40.043316L17.151102 40.043316Q16.429453 40.043316 16.256884 40.074657Q16.100004 40.106 16.037252 40.184357Q15.9745 40.26271 15.9745 40.356735Q15.9745 40.497776 16.05294 40.685825L15.89606 40.748512L15.378355 39.49483L15.378355 39.29111L16.256884 39.29111Q15.676428 38.742626 15.519547 38.46055Q15.378355 38.17847 15.378355 37.86505Q15.378355 37.52029 15.582299 37.253883Q15.786243 37.003147 16.100004 36.89345Q16.429453 36.799427 17.00991 36.799427L18.876785 36.799427Q19.174856 36.799427 19.284674 36.736744Q19.410177 36.674057 19.472929 36.54869Q19.53568 36.42332 19.519993 36.09423L19.692562 36.09423L19.692562 37.551632L16.884405 37.551632Q16.30395 37.551632 16.115692 37.755356Q15.943124 37.959076 15.943124 38.241154Q15.943124 38.444878 16.05294 38.695614Q16.178444 38.94635 16.539268 39.29111L18.908161 39.29111Q19.268986 39.29111 19.39449 39.15007Q19.519993 39.024704 19.519993 38.61726L19.692562 38.61726L19.692562 40.043316ZM22.014389 42.480152L16.44514 42.480152Q16.05294 42.480152 15.927436 42.542835Q15.801931 42.605522 15.723492 42.715218Q15.66074 42.840584 15.66074 43.169674L15.5038595 43.169674L15.5038595 41.11678L15.66074 41.11678Q15.66074 41.398857 15.723492 41.508553Q15.786243 41.618248 15.927436 41.66526Q16.068628 41.727947 16.44514 41.727947L20.25733 41.727947Q20.963291 41.727947 21.120173 41.696606Q21.29274 41.66526 21.339804 41.586906Q21.402557 41.524223 21.402557 41.414528Q21.402557 41.289158 21.339804 41.11678L21.496685 41.03842L22.014389 42.27643L22.014389 42.480152ZM21.073109 44.860043L19.692562 44.860043L19.692562 45.847313L19.378801 45.847313L19.378801 44.860043L16.649086 44.860043Q16.256884 44.860043 16.100004 44.96974Q15.958812 45.095108 15.958812 45.28316Q15.958812 45.4242 16.05294 45.56524Q16.147068 45.706276 16.335325 45.78463L16.335325 45.972683Q15.880372 45.81597 15.66074 45.518223Q15.441107 45.220474 15.441107 44.907055Q15.441107 44.703335 15.550923 44.49961Q15.66074 44.295887 15.880372 44.201862Q16.100004 44.107838 16.554956 44.107838L19.378801 44.107838L19.378801 43.449657L19.519993 43.449657Q19.62981 43.70039 19.86513 43.951126Q20.10045 44.217533 20.4299 44.436928Q20.602467 44.530952 21.073109 44.719006L21.073109 44.860043Z" fill-rule="nonzero"/></svg>