<svg version="1.1" viewBox="0.0 0.0 49.0 68.0" fill="none" stroke="none" stroke-linecap="square" stroke-miterlimit="10" preserveAspectRatio="none" width="49" height="68" xmlns:xlink="http://www.w3.org/1999/xlink" xmlns="http://www.w3.org/2000/svg"><clipPath id="id_0"><path d="M0 0L49.0 0L49.0 68.0L0 68.0L0 0Z" clip-rule="nonzero"/></clipPath><path fill="#000000" fill-opacity="0.0" clip-path="url(#id_0)" d="M-539.02374 -364.01797L588.02374 -364.01797L588.02374 432.01797L-539.02374 432.01797Z" fill-rule="evenodd"/><path fill="#156082" clip-path="url(#id_0)" d="M0.6709369 8.603489L0.6709369 8.603489C0.6709369 4.2213607 4.2272196 0.66894394 8.614117 0.66894394L40.385883 0.66894394L40.385883 0.66894394C42.492546 0.66894394 44.512924 1.5049025 46.00256 2.9929183C47.492195 4.480934 48.329063 6.499117 48.329063 8.603489L48.329063 59.396618C48.329063 63.778744 44.77278 67.33116 40.385883 67.33116L8.614117 67.33116C4.2272196 67.33116 0.6709369 63.778744 0.6709369 59.396618Z" fill-rule="evenodd"/><path stroke="#082836" stroke-width="1.3379835665024074" stroke-miterlimit="800.0" stroke-linecap="butt" clip-path="url(#id_0)" d="M0.6709369 8.603489L0.6709369 8.603489C0.6709369 4.2213607 4.2272196 0.66894394 8.614117 0.66894394L40.385883 0.66894394L40.385883 0.66894394C42.492546 0.66894394 44.512924 1.5049025 46.00256 2.9929183C47.492195 4.480934 48.329063 6.499117 48.329063 8.603489L48.329063 59.396618C48.329063 63.778744 44.77278 67.33116 40.385883 67.33116L8.614117 67.33116C4.2272196 67.33116 0.6709369 63.778744 0.6709369 59.396618Z" fill-rule="evenodd"/><path fill="#ffffff" clip-path="url(#id_0)" d="M24.405872 28.095232L24.405872 29.160858Q23.731287 29.772024 23.731287 29.20787L23.731287 22.187275L24.5 22.688747L26.288435 22.688747L26.288435 20.244076L27.151278 20.400785Q27.559166 20.65152 26.947332 20.761217L26.947332 22.688747L28.892647 22.688747L29.19072 22.281301L29.912369 22.798443Q30.257505 23.04918 29.708426 23.143204L29.708426 28.643715Q29.03384 29.254883 29.03384 28.7064L29.03384 28.095232L26.947332 28.095232L26.947332 31.605528Q26.288435 32.216698 26.288435 31.652542L26.288435 28.095232L24.405872 28.095232ZM21.032948 23.754372L21.895788 23.754372L22.460558 23.205889L23.182207 23.70736Q23.48028 23.958096 23.182207 24.067791L21.032948 24.067791L21.032948 27.734798L23.025326 27.327354Q23.276335 27.327354 23.119455 27.531076L19.401394 28.800425Q19.244513 29.458605 18.899376 29.004147L18.334606 28.23627L20.37405 27.891508L20.37405 24.067791L18.585615 24.067791L18.585615 23.754372L20.37405 23.754372L20.37405 20.49481L21.236893 20.65152Q21.644781 20.902256 21.032948 21.011953L21.032948 23.754372ZM26.947332 27.781813L29.03384 27.781813L29.03384 25.384153L26.947332 25.384153L26.947332 27.781813ZM24.405872 27.781813L26.288435 27.781813L26.288435 25.384153L24.405872 25.384153L24.405872 27.781813ZM26.947332 25.086405L29.03384 25.086405L29.03384 23.002167L26.947332 23.002167L26.947332 25.086405ZM26.288435 25.086405L26.288435 23.002167L24.405872 23.002167L24.405872 25.086405L26.288435 25.086405Z" fill-rule="nonzero"/><path fill="#ffffff" clip-path="url(#id_0)" d="M20.597597 37.779892L20.597597 40.851402L20.362276 40.851402Q20.236773 39.958157 19.923012 39.441013Q19.624939 38.92387 19.06017 38.62612Q18.51109 38.312702 17.899256 38.312702Q17.22467 38.312702 16.785406 38.73582Q16.346142 39.143265 16.346142 39.660408Q16.346142 40.067852 16.612839 40.396942Q17.020727 40.898415 18.542465 41.713303Q19.78182 42.371487 20.236773 42.73192Q20.691725 43.09235 20.942734 43.578148Q21.193743 44.04828 21.193743 44.581093Q21.193743 45.584034 20.409342 46.320568Q19.624939 47.041435 18.401274 47.041435Q18.009071 47.041435 17.679625 46.97875Q17.47568 46.947407 16.83247 46.743687Q16.18926 46.539963 16.032381 46.539963Q15.859813 46.539963 15.765685 46.633987Q15.671556 46.728016 15.624493 47.041435L15.389173 47.041435L15.389173 44.001266L15.624493 44.001266Q15.797061 44.957195 16.079445 45.427322Q16.377518 45.897453 16.957975 46.210873Q17.55412 46.524292 18.26008 46.524292Q19.07586 46.524292 19.5465 46.101177Q20.01714 45.662388 20.01714 45.08256Q20.01714 44.75347 19.844572 44.42438Q19.672003 44.09529 19.279802 43.797543Q19.028793 43.609493 17.883568 42.982655Q16.75403 42.34014 16.267702 41.96404Q15.797061 41.572266 15.546052 41.11781Q15.295044 40.66335 15.295044 40.114864Q15.295044 39.158936 16.032381 38.469414Q16.769718 37.779892 17.899256 37.779892Q18.605217 37.779892 19.38962 38.124653Q19.750444 38.29703 19.907324 38.29703Q20.079893 38.29703 20.189709 38.203007Q20.299524 38.09331 20.362276 37.779892L20.597597 37.779892ZM34.425 37.983612L34.425 38.23435Q34.07986 38.23435 33.86023 38.35972Q33.656284 38.469414 33.45234 38.814175Q33.326836 39.04924 33.044453 39.911144L30.58143 47.041435L30.314735 47.041435L28.29098 41.384212L26.282913 47.041435L26.047592 47.041435L23.427692 39.69175Q23.12962 38.861187 23.05118 38.72015Q22.925676 38.469414 22.690355 38.35972Q22.470722 38.23435 22.078522 38.23435L22.078522 37.983612L25.357319 37.983612L25.357319 38.23435L25.20044 38.23435Q24.855303 38.23435 24.667046 38.39106Q24.494478 38.547768 24.494478 38.767162Q24.494478 38.986557 24.776863 39.817116L26.518232 44.784813L27.992907 40.553654L27.7419 39.817116L27.522266 39.22162Q27.381075 38.89253 27.224194 38.641792Q27.130066 38.516426 27.004562 38.438072Q26.847681 38.312702 26.675114 38.26569Q26.565296 38.23435 26.282913 38.23435L26.282913 37.983612L29.734278 37.983612L29.734278 38.23435L29.498959 38.23435Q29.138134 38.23435 28.965565 38.39106Q28.792997 38.547768 28.792997 38.814175Q28.792997 39.143265 29.091068 39.973827L30.785376 44.784813L32.479683 39.911144Q32.762066 39.096252 32.762066 38.782833Q32.762066 38.62612 32.66794 38.500755Q32.57381 38.37539 32.432617 38.312702Q32.18161 38.23435 31.78941 38.23435L31.78941 37.983612L34.425 37.983612Z" fill-rule="nonzero"/></svg>