<svg version="1.1" viewBox="0.0 0.0 49.0 68.0" fill="none" stroke="none" stroke-linecap="square" stroke-miterlimit="10" preserveAspectRatio="none" width="49" height="68" xmlns:xlink="http://www.w3.org/1999/xlink" xmlns="http://www.w3.org/2000/svg"><clipPath id="id_0"><path d="M0 0L49.0 0L49.0 68.0L0 68.0L0 0Z" clip-rule="nonzero"/></clipPath><path fill="#000000" fill-opacity="0.0" clip-path="url(#id_0)" d="M-539.02374 -364.01797L588.02374 -364.01797L588.02374 432.01797L-539.02374 432.01797Z" fill-rule="evenodd"/><path fill="#156082" clip-path="url(#id_0)" d="M40.385883 0.66894394L40.385883 0.66894394C44.77278 0.66894394 48.329063 4.2213607 48.329063 8.603489L48.329063 59.396618C48.329063 61.500988 47.492195 63.519173 46.00256 65.00719C44.512924 66.4952 42.492546 67.33116 40.385883 67.33116L8.614117 67.33116C4.2272196 67.33116 0.6709369 63.778744 0.6709369 59.396618L0.6709369 8.603489C0.6709369 4.2213607 4.2272196 0.66894394 8.614117 0.66894394Z" fill-rule="evenodd"/><path stroke="#082836" stroke-width="1.3379835665024074" stroke-miterlimit="800.0" stroke-linecap="butt" clip-path="url(#id_0)" d="M40.385883 0.66894394L40.385883 0.66894394C44.77278 0.66894394 48.329063 4.2213607 48.329063 8.603489L48.329063 59.396618C48.329063 61.500988 47.492195 63.519173 46.00256 65.00719C44.512924 66.4952 42.492546 67.33116 40.385883 67.33116L8.614117 67.33116C4.2272196 67.33116 0.6709369 63.778744 0.6709369 59.396618L0.6709369 8.603489C0.6709369 4.2213607 4.2272196 0.66894394 8.614117 0.66894394Z" fill-rule="evenodd"/><path fill="#ffffff" clip-path="url(#id_0)" d="M30.752619 34.000053Q28.556295 34.454514 27.64639 36.617107Q27.505198 36.084293 27.222813 35.943253Q28.462168 34.219448 30.532988 33.82767Q28.101343 33.545597 26.909054 31.21062Q26.909054 31.03824 27.050245 31.147938Q28.493544 33.26352 30.752619 33.404556L30.752619 31.461357L30.956564 31.461357L30.956564 33.46724L32.72931 33.46724L32.619495 34.078407Q32.446926 34.360485 32.368484 33.93737L30.956564 33.93737L30.956564 35.441784L31.427204 35.91191L31.003628 36.476067Q30.81537 36.67979 30.752619 36.476067L30.752619 34.000053ZM26.469788 30.897202L25.98346 30.897202Q25.559883 30.442743 25.952084 30.442743L33.607838 30.442743L33.18426 30.975555L33.18426 36.85217L33.46665 37.071564L33.12151 37.557365Q32.933254 37.776756 32.870502 37.416325L26.014835 37.416325Q25.591259 36.96187 25.98346 36.96187L26.469788 36.96187L26.469788 30.897202ZM26.68942 30.897202L26.68942 36.96187L32.98032 36.96187L32.98032 30.897202L26.68942 30.897202Z" fill-rule="nonzero"/><path fill="#ffffff" clip-path="url(#id_0)" d="M21.700628 33.66722L21.52806 33.66722Q21.52806 33.416485 21.433933 33.259777Q21.355492 33.118736 21.120173 32.9777Q20.963291 32.899345 20.367147 32.69562L15.362667 30.971815L15.362667 30.783762L19.331738 29.373375L15.362667 27.978659L15.362667 27.806278L20.508339 25.972775Q21.088797 25.769053 21.198612 25.70637Q21.37118 25.612343 21.449621 25.455633Q21.52806 25.298923 21.52806 25.032516L21.700628 25.032516L21.700628 27.320478L21.52806 27.320478L21.52806 27.210781Q21.52806 26.975718 21.418245 26.834679Q21.324116 26.70931 21.167236 26.70931Q20.994667 26.70931 20.4299 26.913033L16.947157 28.135368L19.896505 29.169653L20.4299 28.981602L20.837788 28.840563Q21.073109 28.746536 21.245676 28.621168Q21.324116 28.558485 21.386868 28.480131Q21.46531 28.354763 21.512373 28.245066Q21.52806 28.166712 21.52806 27.978659L21.700628 27.978659L21.700628 30.391989L21.52806 30.391989L21.52806 30.219608Q21.52806 29.968872 21.418245 29.843504Q21.324116 29.733809 21.13586 29.733809Q20.90054 29.733809 20.320084 29.93753L16.947157 31.112854L20.367147 32.30385Q20.931915 32.491898 21.151548 32.491898Q21.245676 32.491898 21.339804 32.429214Q21.433933 32.36653 21.46531 32.272507Q21.52806 32.100124 21.52806 31.818047L21.700628 31.818047L21.700628 33.66722ZM22.014389 35.257473L18.939537 35.257473Q19.504305 35.758945 19.661186 36.056694Q19.818066 36.354443 19.818066 36.652187Q19.818066 37.012623 19.614122 37.263355Q19.425865 37.529762 19.002289 37.655132Q18.704216 37.733486 17.935503 37.733486L16.44514 37.733486Q16.05294 37.733486 15.911748 37.79617Q15.801931 37.84318 15.723492 37.95288Q15.66074 38.062576 15.66074 38.360325L15.5038595 38.360325L15.5038595 36.307426L15.66074 36.307426L15.66074 36.401455Q15.66074 36.683533 15.754868 36.79323Q15.848996 36.918594 16.021564 36.96561Q16.100004 36.98128 16.44514 36.98128L17.935503 36.98128Q18.625776 36.98128 18.829721 36.902924Q19.049353 36.84024 19.159168 36.683533Q19.268986 36.52682 19.268986 36.307426Q19.268986 36.088036 19.14348 35.8373Q19.017977 35.602234 18.657152 35.257473L16.44514 35.257473Q16.021564 35.257473 15.911748 35.304485Q15.81762 35.351498 15.73918 35.476868Q15.66074 35.617905 15.66074 35.931324L15.5038595 35.931324L15.5038595 33.862755L15.66074 33.862755Q15.66074 34.144833 15.754868 34.301544Q15.801931 34.39557 15.927436 34.44258Q16.05294 34.50527 16.44514 34.50527L20.241642 34.50527Q20.963291 34.50527 21.120173 34.458252Q21.29274 34.42691 21.339804 34.348557Q21.402557 34.285873 21.402557 34.176174Q21.402557 34.08215 21.339804 33.862755L21.496685 33.80007L22.014389 35.05375L22.014389 35.257473ZM19.692562 38.462185L19.692562 40.42106L19.519993 40.42106L19.519993 40.32703Q19.519993 40.12331 19.425865 40.01361Q19.347425 39.919586 19.206234 39.919586Q19.033665 39.919586 18.719904 40.060627L16.60202 41.07924L18.92385 42.019497Q19.112104 42.09785 19.284674 42.09785Q19.378801 42.09785 19.410177 42.06651Q19.457241 42.035168 19.488617 41.956814Q19.519993 41.878456 19.519993 41.674736L19.692562 41.674736L19.692562 43.03811L19.519993 43.03811Q19.504305 42.86573 19.441553 42.7717Q19.39449 42.693348 19.23761 42.583652Q19.174856 42.53664 18.892473 42.42694L14.719459 40.718807Q14.107625 40.46807 13.793864 40.060627Q13.480104 39.66885 13.480104 39.30842Q13.480104 39.02634 13.636985 38.853962Q13.793864 38.68158 13.997809 38.68158Q14.186066 38.68158 14.311569 38.806946Q14.421386 38.932316 14.421386 39.15171Q14.421386 39.30842 14.327257 39.559155Q14.248817 39.747208 14.248817 39.79422Q14.248817 39.935257 14.39001 40.09197Q14.531201 40.248676 14.939091 40.42106L15.66074 40.718807L18.829721 39.214394Q18.970913 39.15171 19.174856 38.995Q19.347425 38.885303 19.39449 38.806946Q19.472929 38.69725 19.519993 38.462185L19.692562 38.462185Z" fill-rule="nonzero"/></svg>