<svg version="1.1" viewBox="0.0 0.0 49.0 68.0" fill="none" stroke="none" stroke-linecap="square" stroke-miterlimit="10" preserveAspectRatio="none" width="49" height="68" xmlns:xlink="http://www.w3.org/1999/xlink" xmlns="http://www.w3.org/2000/svg"><clipPath id="id_0"><path d="M0 0L49.0 0L49.0 68.0L0 68.0L0 0Z" clip-rule="nonzero"/></clipPath><path fill="#000000" fill-opacity="0.0" clip-path="url(#id_0)" d="M-539.02374 -364.01797L588.02374 -364.01797L588.02374 432.01797L-539.02374 432.01797Z" fill-rule="evenodd"/><path fill="#156082" clip-path="url(#id_0)" d="M0.6709369 8.603489L0.6709369 8.603489C0.6709369 4.2213607 4.2272196 0.66894394 8.614117 0.66894394L40.385883 0.66894394L40.385883 0.66894394C42.492546 0.66894394 44.512924 1.5049025 46.00256 2.9929183C47.492195 4.480934 48.329063 6.499117 48.329063 8.603489L48.329063 59.396618C48.329063 63.778744 44.77278 67.33116 40.385883 67.33116L8.614117 67.33116C4.2272196 67.33116 0.6709369 63.778744 0.6709369 59.396618Z" fill-rule="evenodd"/><path stroke="#082836" stroke-width="1.3379835665024074" stroke-miterlimit="800.0" stroke-linecap="butt" clip-path="url(#id_0)" d="M0.6709369 8.603489L0.6709369 8.603489C0.6709369 4.2213607 4.2272196 0.66894394 8.614117 0.66894394L40.385883 0.66894394L40.385883 0.66894394C42.492546 0.66894394 44.512924 1.5049025 46.00256 2.9929183C47.492195 4.480934 48.329063 6.499117 48.329063 8.603489L48.329063 59.396618C48.329063 63.778744 44.77278 67.33116 40.385883 67.33116L8.614117 67.33116C4.2272196 67.33116 0.6709369 63.778744 0.6709369 59.396618Z" fill-rule="evenodd"/><path fill="#ffffff" clip-path="url(#id_0)" d="M26.335499 29.568302Q26.17862 29.86605 26.17862 30.132458Q26.17862 30.586916 26.586508 30.586916L29.03384 30.586916Q29.551544 30.586916 29.645674 30.069773L30.006498 28.39298Q30.116314 28.298954 30.163378 28.39298L30.163378 30.17947Q30.163378 30.430206 30.367323 30.586916Q30.665394 30.83765 30.320257 31.041374Q30.053562 31.198084 29.551544 31.198084L26.49238 31.198084Q26.084492 31.198084 25.833483 30.947348Q25.566786 30.68094 25.566786 30.226482Q25.566786 29.928734 25.723667 29.568302L27.35522 25.7916L25.268715 25.7916L25.268715 25.49385L27.308157 25.49385L27.716045 24.929695L28.531822 25.540863Q28.829895 25.7916 28.123934 25.854282L26.335499 29.568302ZM24.296057 25.540863Q25.880547 23.096191 26.335499 20.447798L27.35522 20.761217Q27.76311 21.058966 26.994396 21.168663Q26.64926 22.23429 26.241371 23.04918L28.782831 23.04918L29.3476 22.485023L30.053562 23.002167Q30.367323 23.252901 30.053562 23.346928L26.084492 23.346928Q25.425594 24.631947 24.452936 25.697573Q24.248993 25.7916 24.296057 25.540863ZM22.099733 29.004147L23.684223 29.004147L24.34312 28.345966L25.158897 28.957134Q25.472658 29.20787 25.158897 29.317568L22.099733 29.317568L22.099733 31.762238Q21.440836 32.373405 21.440836 31.809252L21.440836 29.317568L18.94644 29.317568L18.94644 29.004147L21.440836 29.004147L21.440836 27.374367L20.21717 27.374367L20.21717 28.189257Q19.558273 28.800425 19.558273 28.23627L19.558273 23.346928L20.326986 23.817057L21.440836 23.817057L21.440836 22.390999L19.040567 22.390999L19.040567 22.07758L21.440836 22.07758L21.440836 20.400785L22.303677 20.557495Q22.711567 20.80823 22.099733 20.902256L22.099733 22.07758L23.48028 22.07758L24.139175 21.419397L24.954954 22.030565Q25.268715 22.281301 24.954954 22.390999L22.099733 22.390999L22.099733 23.817057L23.182207 23.817057L23.48028 23.40961L24.20193 23.911081Q24.5 24.161818 23.997984 24.271515L23.997984 27.734798Q23.323399 28.345966 23.323399 27.781813L23.323399 27.374367L22.099733 27.374367L22.099733 29.004147ZM23.323399 27.076618L23.323399 25.744585L20.21717 25.744585L20.21717 27.076618L23.323399 27.076618ZM23.323399 25.446836L23.323399 24.114805L20.21717 24.114805L20.21717 25.446836L23.323399 25.446836Z" fill-rule="nonzero"/><path fill="#ffffff" clip-path="url(#id_0)" d="M13.180209 37.983612L15.580477 37.983612L20.992847 44.628105L20.992847 39.519367Q20.992847 38.70448 20.820278 38.500755Q20.56927 38.23435 20.051565 38.23435L19.737804 38.23435L19.737804 37.983612L22.828346 37.983612L22.828346 38.23435L22.514585 38.23435Q21.949816 38.23435 21.714495 38.56344Q21.573303 38.782833 21.573303 39.519367L21.573303 46.97875L21.337982 46.97875L15.502037 39.848457L15.502037 45.301956Q15.502037 46.116848 15.674605 46.320568Q15.925613 46.602646 16.44332 46.602646L16.757078 46.602646L16.757078 46.83771L13.666538 46.83771L13.666538 46.602646L13.980299 46.602646Q14.545068 46.602646 14.780388 46.257885Q14.92158 46.054165 14.92158 45.301956L14.92158 39.143265Q14.52938 38.70448 14.325436 38.56344Q14.137179 38.40673 13.744978 38.28136Q13.556722 38.23435 13.180209 38.23435L13.180209 37.983612ZM35.535797 37.983612L35.535797 38.23435Q35.190662 38.23435 34.97103 38.35972Q34.767086 38.469414 34.56314 38.814175Q34.437637 39.04924 34.15525 39.911144L31.692232 47.041435L31.425535 47.041435L29.401781 41.384212L27.393713 47.041435L27.158394 47.041435L24.538494 39.69175Q24.240421 38.861187 24.161982 38.72015Q24.036476 38.469414 23.801157 38.35972Q23.581524 38.23435 23.189323 38.23435L23.189323 37.983612L26.46812 37.983612L26.46812 38.23435L26.31124 38.23435Q25.966103 38.23435 25.777847 38.39106Q25.605278 38.547768 25.605278 38.767162Q25.605278 38.986557 25.887663 39.817116L27.629034 44.784813L29.103708 40.553654L28.8527 39.817116L28.633068 39.22162Q28.491875 38.89253 28.334995 38.641792Q28.240868 38.516426 28.115362 38.438072Q27.958483 38.312702 27.785913 38.26569Q27.676098 38.23435 27.393713 38.23435L27.393713 37.983612L30.84508 37.983612L30.84508 38.23435L30.609758 38.23435Q30.248934 38.23435 30.076366 38.39106Q29.903797 38.547768 29.903797 38.814175Q29.903797 39.143265 30.20187 39.973827L31.896177 44.784813L33.590485 39.911144Q33.872868 39.096252 33.872868 38.782833Q33.872868 38.62612 33.77874 38.500755Q33.684612 38.37539 33.54342 38.312702Q33.29241 38.23435 32.90021 38.23435L32.90021 37.983612L35.535797 37.983612Z" fill-rule="nonzero"/></svg>