<svg version="1.1" viewBox="0.0 0.0 49.0 68.0" fill="none" stroke="none" stroke-linecap="square" stroke-miterlimit="10" preserveAspectRatio="none" width="49" height="68" xmlns:xlink="http://www.w3.org/1999/xlink" xmlns="http://www.w3.org/2000/svg"><clipPath id="id_0"><path d="M0 0L49.0 0L49.0 68.0L0 68.0L0 0Z" clip-rule="nonzero"/></clipPath><path fill="#000000" fill-opacity="0.0" clip-path="url(#id_0)" d="M-539.02374 -363.80237L588.02374 -363.80237L588.02374 431.80237L-539.02374 431.80237Z" fill-rule="evenodd"/><path fill="#156082" clip-path="url(#id_0)" d="M40.385883 0.67026544L40.385883 0.67026544C44.77278 0.67026544 48.329063 4.220758 48.329063 8.6005125L48.329063 59.399487C48.329063 61.50272 47.492195 63.51981 46.00256 65.00702C44.512924 66.49423 42.492546 67.329735 40.385883 67.329735L8.614117 67.329735C4.2272196 67.329735 0.6709369 63.779243 0.6709369 59.399487L0.6709369 8.6005125C0.6709369 4.220758 4.2272196 0.67026544 8.614117 0.67026544Z" fill-rule="evenodd"/><path stroke="#082836" stroke-width="1.3376211447112751" stroke-miterlimit="800.0" stroke-linecap="butt" clip-path="url(#id_0)" d="M40.385883 0.67026544L40.385883 0.67026544C44.77278 0.67026544 48.329063 4.220758 48.329063 8.6005125L48.329063 59.399487C48.329063 61.50272 47.492195 63.51981 46.00256 65.00702C44.512924 66.49423 42.492546 67.329735 40.385883 67.329735L8.614117 67.329735C4.2272196 67.329735 0.6709369 63.779243 0.6709369 59.399487L0.6709369 8.6005125C0.6709369 4.220758 4.2272196 0.67026544 8.614117 0.67026544Z" fill-rule="evenodd"/><path fill="#ffffff" clip-path="url(#id_0)" d="M26.014835 26.41936Q25.591259 25.965147 25.98346 25.965147L33.717655 25.965147L33.403896 26.497671L33.403896 28.392832L33.68628 28.612106L33.325455 29.097643Q33.152885 29.316917 33.074448 28.95668L30.329042 28.95668Q29.905466 28.50247 30.297667 28.50247L30.611427 28.50247L30.611427 26.41936L26.014835 26.41936ZM33.325455 33.18555Q33.152885 33.404827 33.074448 33.04459L26.720797 33.04459Q26.29722 33.04459 26.093275 32.80965Q25.90502 32.590378 25.873644 32.386765Q25.842268 32.16749 26.046211 32.16749Q26.156029 32.16749 26.29722 31.995203L26.438412 31.400028Q26.516853 31.212078 26.579605 31.400028L26.579605 32.277126Q26.579605 32.590378 26.909054 32.590378L30.611427 32.590378L30.611427 30.507267L30.391794 30.507267Q29.968218 30.053055 30.360418 30.053055L33.717655 30.053055L33.403896 30.585579L33.403896 32.48074L33.68628 32.700016L33.325455 33.18555ZM33.18426 32.590378L33.18426 30.507267L32.0861 30.507267L32.0861 32.590378L33.18426 32.590378ZM33.18426 28.50247L33.18426 26.41936L32.0861 26.41936L32.0861 28.50247L33.18426 28.50247ZM29.30932 31.071115Q29.121065 31.29039 29.058311 30.930153L27.003181 30.930153Q26.579605 30.475943 26.971806 30.475943L27.33263 30.475943L27.33263 28.50247L26.76786 28.50247Q26.328596 28.048258 26.720797 28.048258L29.732897 28.048258L29.372072 28.580782L29.372072 30.366304L29.654457 30.585579L29.30932 31.071115ZM31.882156 26.41936L30.81537 26.41936L30.81537 28.50247L31.882156 28.50247L31.882156 26.41936ZM27.536573 28.50247L27.536573 30.475943L29.168129 30.475943L29.168129 28.50247L27.536573 28.50247ZM31.882156 30.507267L30.81537 30.507267L30.81537 32.590378L31.882156 32.590378L31.882156 30.507267ZM31.85078 38.79272L31.85078 40.31198L32.16454 40.56258L31.77234 41.12643Q31.568396 41.408356 31.489956 40.875828L30.580051 40.875828Q30.156473 40.42162 30.532988 40.42162L30.67418 40.42162L30.67418 38.79272L29.87409 38.79272L29.87409 40.56258L30.18785 40.797516L29.79565 41.361366Q29.591705 41.64329 29.513266 41.12643L28.91712 41.12643L28.91712 41.611965L29.372072 42.066177L28.948496 42.630028Q28.775928 42.849304 28.697487 42.630028L28.697487 41.12643L27.364006 41.12643Q26.94043 40.656555 27.33263 40.656555L27.56795 40.656555L27.56795 38.79272L26.720797 38.79272Q26.29722 38.79272 26.093275 38.542118Q25.90502 38.33851 25.873644 38.119232Q25.842268 37.91562 26.093275 37.91562Q26.265844 37.91562 26.29722 37.743332L26.438412 37.132496Q26.516853 36.96021 26.579605 37.132496L26.579605 38.025257Q26.579605 38.33851 26.909054 38.33851L27.56795 38.33851L27.56795 35.691547L27.787582 35.691547L27.787582 38.33851L28.697487 38.33851L28.697487 34.501198L28.91712 34.501198L28.91712 38.33851L29.654457 38.33851L29.654457 35.801186L29.87409 35.801186L29.87409 38.33851L30.67418 38.33851L30.67418 36.537323L30.438858 36.537323Q30.015282 36.08311 30.391794 36.08311L32.133163 36.08311L31.85078 36.615635L31.85078 38.33851L32.556744 38.33851L32.556744 34.532524L32.760685 34.532524L32.760685 38.33851L33.890224 38.33851L33.780407 38.965008Q33.639217 39.356567 33.498024 38.79272L32.760685 38.79272L32.760685 41.471004L33.215637 41.925217L32.79206 42.489067Q32.619495 42.70834 32.556744 42.489067L32.556744 38.79272L31.85078 38.79272ZM30.893812 40.42162L31.63115 40.42162L31.63115 38.79272L30.893812 38.79272L30.893812 40.42162ZM31.63115 36.537323L30.893812 36.537323L30.893812 38.33851L31.63115 38.33851L31.63115 36.537323ZM28.697487 40.656555L28.697487 38.79272L27.787582 38.79272L27.787582 40.656555L28.697487 40.656555ZM28.91712 40.656555L29.654457 40.656555L29.654457 38.79272L28.91712 38.79272L28.91712 40.656555Z" fill-rule="nonzero"/><path fill="#ffffff" clip-path="url(#id_0)" d="M18.406143 20.067917L16.60202 20.067917Q16.021564 20.067917 15.880372 20.20888Q15.676428 20.381166 15.676428 20.72574L15.676428 20.960678L15.5038595 20.960678L15.5038595 18.313719L15.676428 18.313719L15.676428 18.548656Q15.676428 18.940218 15.927436 19.112505Q16.068628 19.190819 16.60202 19.190819L20.602467 19.190819Q21.198612 19.190819 21.339804 19.08118Q21.52806 18.89323 21.52806 18.548656L21.52806 18.313719L21.700628 18.313719L21.700628 20.584778Q21.700628 21.41489 21.52806 21.884766Q21.355492 22.370302 20.947603 22.699213Q20.555403 23.028126 19.990635 23.028126Q19.23761 23.028126 18.75128 22.526926Q18.28064 22.025726 18.28064 21.117304Q18.28064 20.89803 18.312016 20.631765Q18.343391 20.365503 18.406143 20.067917ZM18.67284 20.067917Q18.625776 20.318516 18.5944 20.506466Q18.578712 20.694416 18.578712 20.819715Q18.578712 21.305252 18.939537 21.649828Q19.31605 21.994402 19.896505 21.994402Q20.304396 21.994402 20.64953 21.822115Q20.994667 21.66549 21.167236 21.35224Q21.339804 21.054653 21.339804 20.678753Q21.339804 20.443817 21.245676 20.067917L18.67284 20.067917ZM19.818066 24.876665L18.876785 24.876665Q19.818066 25.393528 19.818066 25.957376Q19.818066 26.207977 19.661186 26.364601Q19.504305 26.536888 19.31605 26.536888Q19.127792 26.536888 19.002289 26.411589Q18.876785 26.28629 18.876785 26.129663Q18.876785 25.97304 19.033665 25.769426Q19.206234 25.565815 19.206234 25.47184Q19.206234 25.393528 19.112104 25.299553Q18.92385 25.09594 18.484585 24.876665L16.476517 24.876665Q16.13138 24.876665 15.958812 24.954979Q15.833308 25.017628 15.73918 25.15859Q15.66074 25.315216 15.66074 25.59714L15.5038595 25.59714L15.5038595 23.467043L15.66074 23.467043Q15.66074 23.780293 15.7705555 23.936916Q15.848996 24.046555 16.005877 24.093542Q16.084316 24.124866 16.44514 24.124866L18.076694 24.124866Q18.798344 24.124866 18.939537 24.093542Q19.080729 24.062218 19.14348 23.983904Q19.206234 23.905592 19.206234 23.780293Q19.206234 23.63933 19.14348 23.467043L19.300362 23.420055L19.818066 24.688717L19.818066 24.876665ZM19.818066 28.804905Q19.818066 29.760317 19.096416 30.339828Q18.468897 30.825365 17.668806 30.825365Q17.119726 30.825365 16.539268 30.54344Q15.958812 30.277178 15.66074 29.807304Q15.378355 29.33743 15.378355 28.757917Q15.378355 27.818169 16.13138 27.25432Q16.758902 26.784445 17.55899 26.784445Q18.139448 26.784445 18.704216 27.06637Q19.268986 27.363956 19.53568 27.818169Q19.818066 28.288044 19.818066 28.804905ZM19.519993 28.663942Q19.519993 28.429005 19.378801 28.178406Q19.23761 27.943468 18.876785 27.786844Q18.51596 27.630219 17.935503 27.630219Q17.025599 27.630219 16.366701 27.990456Q15.707804 28.366356 15.707804 28.96153Q15.707804 29.40008 16.068628 29.682003Q16.429453 29.979591 17.32367 29.979591Q18.43752 29.979591 19.080729 29.494055Q19.519993 29.165142 19.519993 28.663942ZM18.970913 32.587395Q19.818066 33.19823 19.818066 33.88738Q19.818066 34.545204 19.268986 35.01508Q18.719904 35.500614 17.762936 35.500614Q16.649086 35.500614 15.958812 34.76448Q15.378355 34.12232 15.378355 33.339195Q15.378355 32.97896 15.5038595 32.603058Q15.645052 32.227158 15.911748 31.835594L20.241642 31.835594Q20.963291 31.835594 21.120173 31.788609Q21.29274 31.757282 21.339804 31.67897Q21.402557 31.61632 21.402557 31.506683Q21.402557 31.381384 21.339804 31.193434L21.496685 31.130783L22.014389 32.38378L22.014389 32.587395L18.970913 32.587395ZM18.67284 32.587395L16.178444 32.587395Q15.943124 32.82233 15.81762 33.05727Q15.707804 33.30787 15.707804 33.57413Q15.707804 33.997017 16.162756 34.34159Q16.617708 34.701828 17.496239 34.701828Q18.296328 34.701828 18.719904 34.34159Q19.159168 33.997017 19.159168 33.52714Q19.159168 33.292206 19.049353 33.05727Q18.955225 32.86932 18.67284 32.587395ZM22.014389 37.54457L16.44514 37.54457Q16.05294 37.54457 15.927436 37.60722Q15.801931 37.66987 15.723492 37.779507Q15.66074 37.904808 15.66074 38.23372L15.5038595 38.23372L15.5038595 36.181934L15.66074 36.181934Q15.66074 36.46386 15.723492 36.573494Q15.786243 36.683132 15.927436 36.73012Q16.068628 36.79277 16.44514 36.79277L20.25733 36.79277Q20.963291 36.79277 21.120173 36.761444Q21.29274 36.73012 21.339804 36.65181Q21.402557 36.589157 21.402557 36.479523Q21.402557 36.35422 21.339804 36.181934L21.496685 36.103622L22.014389 37.340958L22.014389 37.54457ZM18.108072 39.42197Q17.182478 39.40631 16.649086 39.860523Q16.115692 40.330395 16.115692 40.941235Q16.115692 41.348457 16.335325 41.646046Q16.570644 41.959293 17.119726 42.162907L17.025599 42.303867Q16.398077 42.209892 15.880372 41.74002Q15.378355 41.28581 15.378355 40.596657Q15.378355 39.84486 15.958812 39.296673Q16.554956 38.76415 17.543303 38.76415Q18.625776 38.76415 19.221922 39.312336Q19.818066 39.860523 19.818066 40.69063Q19.818066 41.395443 19.347425 41.849655Q18.892473 42.303867 18.108072 42.303867L18.108072 39.42197ZM18.374767 39.42197L18.374767 41.348457Q18.782656 41.332794 18.955225 41.254482Q19.206234 41.144844 19.347425 40.90991Q19.488617 40.69063 19.488617 40.440033Q19.488617 40.064133 19.190544 39.76655Q18.908161 39.46896 18.374767 39.42197ZM18.92385 44.104702Q19.378801 44.558914 19.457241 44.637226Q19.62981 44.84084 19.723938 45.075775Q19.818066 45.326374 19.818066 45.561314Q19.818066 45.952873 19.582747 46.2348Q19.363113 46.516724 18.92385 46.6107Q19.472929 47.080574 19.645498 47.39382Q19.818066 47.722736 19.818066 48.06731Q19.818066 48.411884 19.645498 48.662483Q19.472929 48.913086 19.080729 49.06971Q18.814032 49.179348 18.249264 49.179348L16.44514 49.179348Q16.05294 49.179348 15.911748 49.226334Q15.81762 49.27332 15.73918 49.39862Q15.66074 49.523922 15.66074 49.805847L15.5038595 49.805847L15.5038595 47.7384L15.66074 47.7384L15.66074 47.832375Q15.66074 48.098637 15.7705555 48.239597Q15.848996 48.349236 16.005877 48.39622Q16.084316 48.411884 16.44514 48.411884L18.249264 48.411884Q18.766968 48.411884 18.970913 48.286583Q19.268986 48.114296 19.268986 47.722736Q19.268986 47.472137 19.14348 47.221535Q19.017977 46.9866 18.688528 46.642025L18.641464 46.62636L18.453207 46.642025L16.44514 46.642025Q16.021564 46.642025 15.911748 46.68901Q15.81762 46.736 15.73918 46.861298Q15.66074 47.002262 15.66074 47.31551L15.5038595 47.31551L15.5038595 45.201077L15.66074 45.201077Q15.66074 45.561314 15.73918 45.68661Q15.833308 45.811913 15.990188 45.858902Q16.068628 45.890224 16.44514 45.890224L18.249264 45.890224Q18.766968 45.890224 18.9866 45.7336Q19.284674 45.529987 19.284674 45.16975Q19.284674 44.934814 19.14348 44.684216Q18.955225 44.308315 18.688528 44.104702L16.44514 44.104702Q16.037252 44.104702 15.911748 44.15169Q15.786243 44.21434 15.723492 44.32398Q15.66074 44.449276 15.66074 44.77819L15.5038595 44.77819L15.5038595 42.710743L15.66074 42.710743Q15.66074 43.008327 15.723492 43.117966Q15.786243 43.227604 15.927436 43.290253Q16.068628 43.3529 16.44514 43.3529L18.045319 43.3529Q18.735592 43.3529 18.939537 43.305916Q19.096416 43.27459 19.14348 43.196278Q19.206234 43.13363 19.206234 43.02399Q19.206234 42.89869 19.14348 42.710743L19.300362 42.64809L19.818066 43.90109L19.818066 44.104702L18.92385 44.104702Z" fill-rule="nonzero"/></svg>