<svg version="1.1" viewBox="0.0 0.0 49.0 68.0" fill="none" stroke="none" stroke-linecap="square" stroke-miterlimit="10" preserveAspectRatio="none" width="49" height="68" xmlns:xlink="http://www.w3.org/1999/xlink" xmlns="http://www.w3.org/2000/svg"><clipPath id="id_0"><path d="M0 0L49.0 0L49.0 68.0L0 68.0L0 0Z" clip-rule="nonzero"/></clipPath><path fill="#000000" fill-opacity="0.0" clip-path="url(#id_0)" d="M-539.02374 -364.01797L588.02374 -364.01797L588.02374 432.01797L-539.02374 432.01797Z" fill-rule="evenodd"/><path fill="#156082" clip-path="url(#id_0)" d="M0.6709369 8.603489L0.6709369 8.603489C0.6709369 4.2213607 4.2272196 0.66894394 8.614117 0.66894394L40.385883 0.66894394L40.385883 0.66894394C42.492546 0.66894394 44.512924 1.5049025 46.00256 2.9929183C47.492195 4.480934 48.329063 6.499117 48.329063 8.603489L48.329063 59.396618C48.329063 63.778744 44.77278 67.33116 40.385883 67.33116L8.614117 67.33116C4.2272196 67.33116 0.6709369 63.778744 0.6709369 59.396618Z" fill-rule="evenodd"/><path stroke="#082836" stroke-width="1.3379835665024074" stroke-miterlimit="800.0" stroke-linecap="butt" clip-path="url(#id_0)" d="M0.6709369 8.603489L0.6709369 8.603489C0.6709369 4.2213607 4.2272196 0.66894394 8.614117 0.66894394L40.385883 0.66894394L40.385883 0.66894394C42.492546 0.66894394 44.512924 1.5049025 46.00256 2.9929183C47.492195 4.480934 48.329063 6.499117 48.329063 8.603489L48.329063 59.396618C48.329063 63.778744 44.77278 67.33116 40.385883 67.33116L8.614117 67.33116C4.2272196 67.33116 0.6709369 63.778744 0.6709369 59.396618Z" fill-rule="evenodd"/><path fill="#ffffff" clip-path="url(#id_0)" d="M23.749733 28.831766Q24.612576 29.239212 23.435972 29.286224Q22.933956 30.210812 22.416252 31.025703L23.639917 31.025703L24.314503 30.35185L25.13028 30.963018Q25.428352 31.229425 25.13028 31.323452L22.886892 31.323452L22.886892 33.470375L23.388908 33.470375L23.953678 32.90622L24.65964 33.407692Q24.9734 33.674095 24.65964 33.768124L22.886892 33.768124L22.886892 35.96206L23.388908 35.96206L23.953678 35.397903L24.65964 35.915047Q24.9734 36.16578 24.65964 36.259808L22.886892 36.259808L22.886892 38.657467L23.592854 38.657467L24.25175 37.999283L25.067528 38.61045Q25.381289 38.861187 25.067528 38.970886L20.847448 38.970886L20.847448 39.73876Q20.172863 40.34993 20.172863 39.785774L20.172863 31.981632Q19.670847 32.749508 19.153143 33.360676Q18.855068 33.674095 18.949198 33.26665Q20.329744 31.072716 20.894512 28.471334L21.506346 28.784754Q22.322123 29.1922 21.349466 29.239212Q21.051394 30.101116 20.737633 30.868994L20.894512 31.025703L22.212307 31.025703Q22.730011 29.69367 23.090836 28.518347L23.749733 28.831766ZM16.768562 31.840593Q17.427458 32.29505 17.427458 32.702496Q17.427458 33.062927 17.17645 33.062927Q17.01957 33.062927 16.909754 32.859207Q16.705809 32.45176 16.454802 32.185356Q15.639024 33.000244 14.933063 33.313663Q14.776182 33.360676 14.870311 33.203968Q15.544896 32.749508 16.156729 31.934618Q15.59196 31.480162 14.933063 31.229425Q14.729118 31.119728 14.933063 31.072716Q15.890032 31.276438 16.407738 31.574186Q16.86269 30.868994 17.01957 30.414536L17.474524 30.66527Q17.835348 30.868994 17.317642 30.868994Q17.17645 31.166742 16.768562 31.840593ZM15.278199 37.341103Q15.278199 38.25002 14.870311 37.544827L14.462422 36.823963L15.340951 36.776947L15.686088 35.397903L14.16435 35.397903L14.16435 39.785774Q13.505452 40.396942 13.505452 39.832787L13.505452 34.58301L14.258477 35.100155L15.795904 35.100155L16.093977 33.92483L14.415358 33.92483L14.415358 34.285263Q13.756461 34.89643 13.756461 34.33228L13.756461 30.304838L14.32123 30.414536Q15.184072 30.555574 14.415358 30.82198L14.415358 33.611412L17.992228 33.611412L17.992228 30.304838L18.541307 30.414536Q19.419838 30.555574 18.651125 30.82198L18.651125 34.22258Q17.992228 34.833748 17.992228 34.285263L17.992228 33.92483L16.705809 33.92483L16.29792 35.100155L18.243237 35.100155L18.541307 34.69271L19.262959 35.19418Q19.623783 35.444916 19.059013 35.55461L19.059013 38.767162Q19.059013 39.22162 18.698189 39.582054Q18.44718 39.832787 18.196173 39.832787Q17.992228 39.832787 17.992228 39.582054Q17.992228 39.268635 17.678467 39.22162L17.01957 39.127594Q16.815626 39.0179 17.01957 38.92387L18.039291 38.92387Q18.400116 38.92387 18.400116 38.56344L18.400116 35.397903L16.156729 35.397903L15.639024 36.776947L17.17645 36.62024Q16.972506 36.259808 16.658745 36.00907Q16.501865 35.85236 16.768562 35.915047Q16.972506 35.96206 17.380394 36.369503Q17.835348 36.823963 17.835348 37.27842Q17.835348 37.59184 17.678467 37.59184Q17.521587 37.59184 17.474524 37.43513Q17.380394 37.137383 17.270578 36.870975L15.278199 37.341103ZM15.999848 29.69367L15.999848 28.267612L16.611681 28.377308Q17.521587 28.518347 16.658745 28.831766L16.658745 29.69367L17.992228 29.69367L18.651125 29.03549L19.466902 29.646658Q19.764975 29.897392 19.466902 30.00709L13.191692 30.00709L13.191692 29.69367L15.999848 29.69367ZM20.847448 31.323452L20.847448 33.470375L22.212307 33.470375L22.212307 31.323452L20.847448 31.323452ZM20.847448 35.96206L22.212307 35.96206L22.212307 33.768124L20.847448 33.768124L20.847448 35.96206ZM20.847448 38.657467L22.212307 38.657467L22.212307 36.259808L20.847448 36.259808L20.847448 38.657467Z" fill-rule="nonzero"/><path fill="#ffffff" clip-path="url(#id_0)" d="M35.111786 29.756353L35.111786 32.827866L34.876465 32.827866Q34.75096 31.934618 34.4372 31.417477Q34.139126 30.900335 33.57436 30.602587Q33.025276 30.289167 32.413445 30.289167Q31.73886 30.289167 31.299595 30.712284Q30.86033 31.119728 30.86033 31.636871Q30.86033 32.044315 31.127028 32.373405Q31.534916 32.874878 33.056652 33.689766Q34.29601 34.34795 34.75096 34.70838Q35.205914 35.068813 35.45692 35.55461Q35.70793 36.024742 35.70793 36.557556Q35.70793 37.560497 34.92353 38.29703Q34.139126 39.0179 32.915462 39.0179Q32.523262 39.0179 32.193813 38.95521Q31.989868 38.92387 31.346659 38.72015Q30.70345 38.516426 30.54657 38.516426Q30.374002 38.516426 30.279873 38.61045Q30.185745 38.70448 30.138681 39.0179L29.90336 39.0179L29.90336 35.97773L30.138681 35.97773Q30.311249 36.93366 30.593634 37.403786Q30.891706 37.873917 31.472164 38.187336Q32.06831 38.500755 32.77427 38.500755Q33.590046 38.500755 34.060688 38.07764Q34.531326 37.63885 34.531326 37.059025Q34.531326 36.729935 34.35876 36.400845Q34.18619 36.071754 33.79399 35.774006Q33.542984 35.585957 32.39776 34.959118Q31.268219 34.316605 30.78189 33.940502Q30.311249 33.54873 30.060242 33.09427Q29.809233 32.639812 29.809233 32.091328Q29.809233 31.135399 30.54657 30.445877Q31.283907 29.756353 32.413445 29.756353Q33.119408 29.756353 33.90381 30.101116Q34.264633 30.273497 34.421513 30.273497Q34.59408 30.273497 34.703896 30.17947Q34.813713 30.069773 34.876465 29.756353L35.111786 29.756353Z" fill-rule="nonzero"/></svg>