<svg version="1.1" viewBox="0.0 0.0 49.0 68.0" fill="none" stroke="none" stroke-linecap="square" stroke-miterlimit="10" preserveAspectRatio="none" width="49" height="68" xmlns:xlink="http://www.w3.org/1999/xlink" xmlns="http://www.w3.org/2000/svg"><clipPath id="id_0"><path d="M0 0L49.0 0L49.0 68.0L0 68.0L0 0Z" clip-rule="nonzero"/></clipPath><path fill="#000000" fill-opacity="0.0" clip-path="url(#id_0)" d="M-539.02374 -364.01797L588.02374 -364.01797L588.02374 432.01797L-539.02374 432.01797Z" fill-rule="evenodd"/><path fill="#156082" clip-path="url(#id_0)" d="M40.385883 0.66894394L40.385883 0.66894394C44.77278 0.66894394 48.329063 4.2213607 48.329063 8.603489L48.329063 59.396618C48.329063 61.500988 47.492195 63.519173 46.00256 65.00719C44.512924 66.4952 42.492546 67.33116 40.385883 67.33116L8.614117 67.33116C4.2272196 67.33116 0.6709369 63.778744 0.6709369 59.396618L0.6709369 8.603489C0.6709369 4.2213607 4.2272196 0.66894394 8.614117 0.66894394Z" fill-rule="evenodd"/><path stroke="#082836" stroke-width="1.3379835665024074" stroke-miterlimit="800.0" stroke-linecap="butt" clip-path="url(#id_0)" d="M40.385883 0.66894394L40.385883 0.66894394C44.77278 0.66894394 48.329063 4.2213607 48.329063 8.603489L48.329063 59.396618C48.329063 61.500988 47.492195 63.519173 46.00256 65.00719C44.512924 66.4952 42.492546 67.33116 40.385883 67.33116L8.614117 67.33116C4.2272196 67.33116 0.6709369 63.778744 0.6709369 59.396618L0.6709369 8.603489C0.6709369 4.2213607 4.2272196 0.66894394 8.614117 0.66894394Z" fill-rule="evenodd"/><path fill="#ffffff" clip-path="url(#id_0)" d="M33.639217 29.878588Q33.498024 30.270363 33.35683 29.706207L32.0861 29.706207L32.0861 32.16655L32.41555 32.417286L32.02335 32.98144Q31.803717 33.26352 31.740965 32.730705L28.807304 32.730705Q28.383728 32.276245 28.775928 32.276245L29.121065 32.276245L29.121065 29.706207L25.952084 29.706207Q25.528507 29.236078 25.90502 29.236078L29.121065 29.236078L29.121065 26.775736L28.744553 26.775736Q28.320974 26.321278 28.697487 26.321278L32.41555 26.321278L32.0861 26.83842L32.0861 29.236078L33.74903 29.236078L33.639217 29.878588ZM31.882156 29.236078L31.882156 26.775736L29.340696 26.775736L29.340696 29.236078L31.882156 29.236078ZM29.340696 32.276245L31.882156 32.276245L31.882156 29.706207L29.340696 29.706207L29.340696 32.276245ZM33.325455 35.520138L33.325455 37.35364L33.607838 37.557365L33.262703 38.058834Q33.074448 38.262558 33.011696 37.917797L30.721243 37.917797Q30.360418 37.463337 30.67418 37.463337L30.925188 37.463337L30.925188 35.441784L25.98346 35.441784Q25.559883 34.987324 25.952084 34.987324L33.639217 34.987324L33.325455 35.520138ZM33.12151 35.441784L32.274357 35.441784L32.274357 37.463337L33.12151 37.463337L33.12151 35.441784ZM32.054726 35.441784L31.14482 35.441784L31.14482 37.463337L32.054726 37.463337L32.054726 35.441784ZM28.807304 37.384983L28.807304 39.328182L29.654457 39.328182L29.654457 37.384983L28.807304 37.384983ZM27.615015 37.384983L27.615015 39.328182L28.60336 39.328182L28.60336 37.384983L27.615015 37.384983ZM29.87409 37.463337L29.87409 39.218487L30.156473 39.43788L29.79565 39.92368Q29.623081 40.143074 29.544641 39.782642L26.909054 39.782642Q26.469788 39.328182 26.861988 39.328182L27.395382 39.328182L27.395382 37.384983L26.658045 37.384983Q26.234468 36.930527 26.626669 36.930527L30.18785 36.930527L29.87409 37.463337ZM31.14482 41.553463L32.054726 41.553463L32.054726 39.39087L31.14482 39.39087L31.14482 41.553463ZM32.274357 41.553463L33.12151 41.553463L33.12151 39.39087L32.274357 39.39087L32.274357 41.553463ZM30.925188 41.553463L30.925188 39.39087L30.67418 39.39087Q30.250603 38.93641 30.642803 38.93641L33.639217 38.93641L33.325455 39.469223L33.325455 41.443764L33.607838 41.647488L33.262703 42.148956Q33.074448 42.35268 33.011696 42.00792L26.579605 42.00792Q26.156029 42.00792 25.952084 41.757183Q25.763826 41.553463 25.73245 41.271385Q25.701075 41.05199 25.90502 41.05199Q26.093275 41.05199 26.156029 40.87961L26.29722 40.28411Q26.37566 40.09606 26.438412 40.28411L26.438412 41.22437Q26.438412 41.553463 26.76786 41.553463L30.925188 41.553463Z" fill-rule="nonzero"/><path fill="#ffffff" clip-path="url(#id_0)" d="M15.5038595 24.31117L20.727972 21.929182L16.586332 21.929182Q16.005877 21.929182 15.864684 22.03888Q15.676428 22.21126 15.676428 22.587364L15.676428 22.806757L15.5038595 22.806757L15.5038595 20.644163L15.676428 20.644163L15.676428 20.863556Q15.676428 21.255331 15.911748 21.41204Q16.05294 21.521738 16.586332 21.521738L20.633842 21.521738Q21.041733 21.521738 21.229988 21.427711Q21.355492 21.365028 21.433933 21.192648Q21.52806 21.020266 21.52806 20.644163L21.700628 20.644163L21.700628 22.399311L16.85303 24.64026L21.700628 26.849867L21.700628 28.605017L21.52806 28.605017L21.52806 28.401293Q21.52806 27.993849 21.29274 27.83714Q21.151548 27.727442 20.633842 27.727442L16.586332 27.727442Q16.005877 27.727442 15.864684 27.85281Q15.676428 28.02519 15.676428 28.401293L15.676428 28.605017L15.5038595 28.605017L15.5038595 25.972294L15.676428 25.972294L15.676428 26.191687Q15.676428 26.599133 15.911748 26.755842Q16.05294 26.849867 16.586332 26.849867L20.727972 26.849867L15.5038595 24.46788L15.5038595 24.31117ZM22.014389 30.169436Q22.014389 30.357487 21.873198 30.482855Q21.732004 30.623894 21.543749 30.623894Q21.355492 30.623894 21.2143 30.482855Q21.073109 30.357487 21.073109 30.169436Q21.073109 29.965712 21.2143 29.824673Q21.355492 29.699306 21.543749 29.699306Q21.732004 29.699306 21.873198 29.824673Q22.014389 29.965712 22.014389 30.169436ZM19.818066 30.545538L16.44514 30.545538Q16.05294 30.545538 15.927436 30.59255Q15.801931 30.655235 15.723492 30.764933Q15.66074 30.874628 15.66074 31.172377L15.5038595 31.172377L15.5038595 29.150822L15.66074 29.150822Q15.66074 29.44857 15.723492 29.558268Q15.786243 29.667963 15.927436 29.714977Q16.068628 29.77766 16.44514 29.77766L18.061007 29.77766Q18.75128 29.77766 18.955225 29.746319Q19.096416 29.714977 19.14348 29.636621Q19.206234 29.573938 19.206234 29.44857Q19.206234 29.323202 19.14348 29.150822L19.300362 29.072468L19.818066 30.341816L19.818066 30.545538ZM15.9745 34.649235Q15.66074 34.351486 15.519547 34.053738Q15.378355 33.75599 15.378355 33.4269Q15.378355 32.737377 15.943124 32.220234Q16.52358 31.718765 17.417799 31.718765Q18.327703 31.718765 19.06504 32.28292Q19.818066 32.847073 19.818066 33.74032Q19.818066 34.288803 19.472929 34.649235L20.241642 34.649235Q20.963291 34.649235 21.120173 34.617893Q21.29274 34.58655 21.339804 34.508198Q21.402557 34.445515 21.402557 34.335815Q21.402557 34.21045 21.339804 34.006725L21.496685 33.959713L22.014389 35.19772L22.014389 35.401443L17.16679 35.401443Q16.429453 35.401443 16.256884 35.432785Q16.100004 35.479797 16.037252 35.54248Q15.9745 35.620834 15.9745 35.730534Q15.9745 35.8559 16.05294 36.059624L15.89606 36.106636L15.378355 34.86863L15.378355 34.649235L15.9745 34.649235ZM16.288261 34.649235L18.453207 34.649235Q18.766968 34.633564 19.017977 34.492527Q19.268986 34.351486 19.39449 34.116425Q19.53568 33.89703 19.53568 33.677635Q19.53568 33.285862 19.174856 32.972443Q18.704216 32.549324 17.778624 32.549324Q16.868717 32.549324 16.366701 32.9411Q15.880372 33.348545 15.880372 33.850018Q15.880372 34.25746 16.288261 34.649235ZM15.9745 39.32702Q15.66074 39.02927 15.519547 38.73152Q15.378355 38.433777 15.378355 38.104683Q15.378355 37.41516 15.943124 36.89802Q16.52358 36.39655 17.417799 36.39655Q18.327703 36.39655 19.06504 36.960705Q19.818066 37.52486 19.818066 38.418102Q19.818066 38.966587 19.472929 39.32702L20.241642 39.32702Q20.963291 39.32702 21.120173 39.295677Q21.29274 39.264336 21.339804 39.18598Q21.402557 39.1233 21.402557 39.0136Q21.402557 38.888233 21.339804 38.68451L21.496685 38.637497L22.014389 39.875504L22.014389 40.079227L17.16679 40.079227Q16.429453 40.079227 16.256884 40.11057Q16.100004 40.15758 16.037252 40.220264Q15.9745 40.298622 15.9745 40.408318Q15.9745 40.533684 16.05294 40.737408L15.89606 40.78442L15.378355 39.546413L15.378355 39.32702L15.9745 39.32702ZM16.288261 39.32702L18.453207 39.32702Q18.766968 39.311348 19.017977 39.17031Q19.268986 39.02927 19.39449 38.79421Q19.53568 38.574814 19.53568 38.35542Q19.53568 37.963646 19.174856 37.650227Q18.704216 37.22711 17.778624 37.22711Q16.868717 37.22711 16.366701 37.618885Q15.880372 38.02633 15.880372 38.5278Q15.880372 38.935246 16.288261 39.32702ZM22.014389 42.484722L16.44514 42.484722Q16.05294 42.484722 15.927436 42.547405Q15.801931 42.61009 15.723492 42.719784Q15.66074 42.845154 15.66074 43.174244L15.5038595 43.174244L15.5038595 41.121346L15.66074 41.121346Q15.66074 41.403423 15.723492 41.51312Q15.786243 41.622818 15.927436 41.66983Q16.068628 41.732513 16.44514 41.732513L20.25733 41.732513Q20.963291 41.732513 21.120173 41.70117Q21.29274 41.66983 21.339804 41.591476Q21.402557 41.528793 21.402557 41.419094Q21.402557 41.293728 21.339804 41.121346L21.496685 41.04299L22.014389 42.281L22.014389 42.484722ZM18.108072 44.36314Q17.182478 44.34747 16.649086 44.80193Q16.115692 45.272057 16.115692 45.883224Q16.115692 46.29067 16.335325 46.588417Q16.570644 46.901836 17.119726 47.10556L17.025599 47.246597Q16.398077 47.152573 15.880372 46.682446Q15.378355 46.227985 15.378355 45.538464Q15.378355 44.786255 15.958812 44.237774Q16.554956 43.70496 17.543303 43.70496Q18.625776 43.70496 19.221922 44.253445Q19.818066 44.80193 19.818066 45.63249Q19.818066 46.337685 19.347425 46.79214Q18.892473 47.246597 18.108072 47.246597L18.108072 44.36314ZM18.374767 44.36314L18.374767 46.29067Q18.782656 46.274998 18.955225 46.196644Q19.206234 46.08695 19.347425 45.851883Q19.488617 45.63249 19.488617 45.381752Q19.488617 45.00565 19.190544 44.7079Q18.908161 44.410152 18.374767 44.36314Z" fill-rule="nonzero"/></svg>