<svg version="1.1" viewBox="0.0 0.0 49.0 68.0" fill="none" stroke="none" stroke-linecap="square" stroke-miterlimit="10" preserveAspectRatio="none" width="49" height="68" xmlns:xlink="http://www.w3.org/1999/xlink" xmlns="http://www.w3.org/2000/svg"><clipPath id="id_0"><path d="M0 0L49.0 0L49.0 68.0L0 68.0L0 0Z" clip-rule="nonzero"/></clipPath><path fill="#000000" fill-opacity="0.0" clip-path="url(#id_0)" d="M-539.02374 -363.80237L588.02374 -363.80237L588.02374 431.80237L-539.02374 431.80237Z" fill-rule="evenodd"/><path fill="#156082" clip-path="url(#id_0)" d="M40.385883 0.67026544L40.385883 0.67026544C44.77278 0.67026544 48.329063 4.220758 48.329063 8.6005125L48.329063 59.399487C48.329063 61.50272 47.492195 63.51981 46.00256 65.00702C44.512924 66.49423 42.492546 67.329735 40.385883 67.329735L8.614117 67.329735C4.2272196 67.329735 0.6709369 63.779243 0.6709369 59.399487L0.6709369 8.6005125C0.6709369 4.220758 4.2272196 0.67026544 8.614117 0.67026544Z" fill-rule="evenodd"/><path stroke="#082836" stroke-width="1.3376211447112751" stroke-miterlimit="800.0" stroke-linecap="butt" clip-path="url(#id_0)" d="M40.385883 0.67026544L40.385883 0.67026544C44.77278 0.67026544 48.329063 4.220758 48.329063 8.6005125L48.329063 59.399487C48.329063 61.50272 47.492195 63.51981 46.00256 65.00702C44.512924 66.49423 42.492546 67.329735 40.385883 67.329735L8.614117 67.329735C4.2272196 67.329735 0.6709369 63.779243 0.6709369 59.399487L0.6709369 8.6005125C0.6709369 4.220758 4.2272196 0.67026544 8.614117 0.67026544Z" fill-rule="evenodd"/><path fill="#ffffff" clip-path="url(#id_0)" d="M32.933254 27.061522Q32.65087 27.343445 32.41555 27.343445Q32.054726 27.343445 32.054726 27.12417Q32.054726 26.920559 32.227295 26.842247Q32.65087 26.669958 32.98032 26.356709Q33.215637 26.10611 33.35683 25.824184Q33.435272 25.620573 33.46665 25.824184Q33.35683 26.638634 32.933254 27.061522ZM26.265844 28.016932Q26.54823 27.374771 27.144373 26.779596L26.438412 26.043459Q26.014835 26.10611 26.156029 25.902496L26.720797 25.47961L27.144373 26.528996L30.156473 26.528996L30.156473 25.260336L30.360418 25.260336L30.360418 26.41936L30.642803 26.638634L30.297667 27.12417Q30.10941 27.343445 30.046658 26.983208L27.222813 26.983208Q26.799236 27.406096 26.626669 27.93862Q26.407036 28.533794 26.407036 29.285593L26.407036 33.467476Q26.328596 33.263863 25.98346 33.04459L25.98346 29.348244Q25.98346 28.64343 26.265844 28.016932ZM30.391794 28.50247L27.003181 28.50247Q26.579605 28.048258 26.971806 28.048258L30.862434 28.048258L30.611427 28.580782L30.611427 28.81572L33.717655 28.81572L33.435272 29.348244L33.435272 31.713278L33.717655 31.91689L33.35683 32.41809Q33.18426 32.6217 33.12151 32.277126L30.611427 32.277126L30.611427 32.527725L30.893812 32.73134L30.532988 33.23254Q30.360418 33.43615 30.297667 33.091576L27.426758 33.091576Q27.081621 33.091576 26.830612 32.840977Q26.68942 32.700016 26.68942 32.48074Q26.68942 32.33978 26.830612 32.33978Q27.003181 32.33978 27.081621 32.136166L27.191437 31.681953Q27.25419 31.54099 27.33263 31.681953L27.33263 32.386765Q27.33263 32.6217 27.56795 32.6217L30.391794 32.6217L30.391794 28.50247ZM29.450514 29.943417L29.450514 30.97714L29.732897 31.180754L29.372072 31.681953Q29.199505 31.885565 29.121065 31.54099L27.677767 31.54099Q27.25419 31.071115 27.64639 31.071115L27.818958 31.071115L27.818958 29.880768L27.395382 29.880768Q26.971806 29.426556 27.364006 29.426556L29.764273 29.426556L29.450514 29.943417ZM28.038591 31.071115L29.23088 31.071115L29.23088 29.880768L28.038591 29.880768L28.038591 31.071115ZM30.611427 30.162693L32.305733 30.162693L32.02335 30.695217L32.02335 31.822916L33.215637 31.822916L33.215637 29.285593L30.611427 29.285593L30.611427 30.162693ZM31.803717 30.616903L30.611427 30.616903L30.611427 31.822916L31.803717 31.822916L31.803717 30.616903ZM29.827026 42.45774Q29.654457 42.677013 29.591705 42.45774L29.591705 38.542118L27.081621 37.03852L27.222813 41.12643Q27.928774 40.62523 28.634735 39.716805Q28.775928 39.575844 28.775928 39.716805Q28.179783 40.93848 27.536573 41.549316Q26.909054 42.175816 26.516853 41.972202Q26.407036 41.89389 26.407036 41.75293Q26.407036 41.580643 26.579605 41.471004Q26.626669 41.43968 27.050245 41.220406L26.579605 35.910824Q26.124651 35.83251 26.37566 35.6289L27.081621 35.206013L27.081621 36.78792L29.591705 37.884296L29.591705 34.532524L29.79565 34.532524L29.79565 38.197544L31.740965 38.197544L31.740965 35.237335L31.944908 35.237335L31.944908 38.197544L33.717655 38.197544L33.607838 38.824043Q33.46665 39.215607 33.325455 38.651756L31.944908 38.651756L31.944908 40.70354L32.478302 41.220406L31.991974 41.89389Q31.803717 42.113167 31.740965 41.89389L31.740965 38.651756L29.79565 38.651756L29.79565 41.26739L30.329042 41.784252L29.827026 42.45774Z" fill-rule="nonzero"/><path fill="#ffffff" clip-path="url(#id_0)" d="M18.406143 28.1172L16.60202 28.1172Q16.021564 28.1172 15.880372 28.258163Q15.676428 28.43045 15.676428 28.775026L15.676428 29.009962L15.5038595 29.009962L15.5038595 26.363003L15.676428 26.363003L15.676428 26.59794Q15.676428 26.989502 15.927436 27.161789Q16.068628 27.240103 16.60202 27.240103L20.602467 27.240103Q21.198612 27.240103 21.339804 27.130465Q21.52806 26.942514 21.52806 26.59794L21.52806 26.363003L21.700628 26.363003L21.700628 28.634064Q21.700628 29.464174 21.52806 29.93405Q21.355492 30.419586 20.947603 30.748499Q20.555403 31.07741 19.990635 31.07741Q19.23761 31.07741 18.75128 30.57621Q18.28064 30.075012 18.28064 29.166588Q18.28064 28.947313 18.312016 28.681051Q18.343391 28.41479 18.406143 28.1172ZM18.67284 28.1172Q18.625776 28.367802 18.5944 28.55575Q18.578712 28.7437 18.578712 28.869Q18.578712 29.354538 18.939537 29.699112Q19.31605 30.043686 19.896505 30.043686Q20.304396 30.043686 20.64953 29.871399Q20.994667 29.714775 21.167236 29.401525Q21.339804 29.103937 21.339804 28.728039Q21.339804 28.493101 21.245676 28.1172L18.67284 28.1172ZM16.100004 34.069313Q15.613675 33.42715 15.535235 33.254864Q15.409731 33.019924 15.409731 32.738Q15.409731 32.29945 15.707804 32.017525Q16.005877 31.735601 16.492205 31.735601Q16.805965 31.735601 17.025599 31.876564Q17.339357 32.064514 17.606054 32.518726Q17.88844 32.9886 18.28064 34.069313L18.43752 34.069313Q19.06504 34.069313 19.300362 33.8657Q19.53568 33.67775 19.53568 33.286186Q19.53568 33.00426 19.378801 32.831974Q19.221922 32.659687 19.017977 32.659687L18.766968 32.67535Q18.547337 32.67535 18.43752 32.565712Q18.327703 32.456074 18.327703 32.283787Q18.327703 32.1115 18.43752 32.001865Q18.563025 31.892227 18.766968 31.892227Q19.159168 31.892227 19.488617 32.29945Q19.818066 32.706676 19.818066 33.42715Q19.818066 33.990997 19.62981 34.335575Q19.488617 34.617496 19.190544 34.742798Q18.9866 34.82111 18.374767 34.82111L16.962845 34.82111Q16.366701 34.82111 16.225508 34.836773Q16.084316 34.8681 16.037252 34.915085Q15.990188 34.977734 15.990188 35.040386Q15.990188 35.1187 16.037252 35.165684Q16.084316 35.25966 16.366701 35.541584L16.100004 35.541584Q15.425419 35.024723 15.425419 34.554848Q15.425419 34.335575 15.582299 34.19461Q15.73918 34.069313 16.100004 34.069313ZM16.398077 34.069313L17.998255 34.069313Q17.731558 33.38016 17.606054 33.176548Q17.417799 32.81631 17.198166 32.659687Q16.978533 32.503063 16.711838 32.503063Q16.38239 32.503063 16.162756 32.691013Q15.943124 32.894627 15.943124 33.16089Q15.943124 33.505463 16.398077 34.069313ZM19.818066 38.548428L18.390455 38.548428L18.390455 38.407467Q19.06504 38.23518 19.300362 37.953255Q19.551369 37.686993 19.551369 37.264107Q19.551369 36.950855 19.378801 36.747242Q19.206234 36.559296 19.002289 36.559296Q18.75128 36.559296 18.563025 36.700256Q18.374767 36.841217 18.170824 37.27977L17.841375 37.93759Q17.386423 38.86168 16.649086 38.86168Q16.068628 38.86168 15.723492 38.42313Q15.378355 38.000244 15.378355 37.467716Q15.378355 37.09182 15.519547 36.59062Q15.550923 36.449657 15.550923 36.34002Q15.550923 36.246044 15.441107 36.183395L15.441107 36.02677L16.931469 36.02677L16.931469 36.183395Q16.288261 36.308693 15.958812 36.66893Q15.645052 37.029167 15.645052 37.48338Q15.645052 37.79663 15.833308 37.98458Q16.021564 38.18819 16.272573 38.18819Q16.586332 38.18819 16.805965 37.968918Q17.025599 37.74964 17.355045 37.076157Q17.684494 36.41833 17.95119 36.214718Q18.2022 36.01111 18.610088 36.01111Q19.127792 36.01111 19.472929 36.355682Q19.818066 36.71592 19.818066 37.27977Q19.818066 37.53037 19.70825 37.874943Q19.645498 38.10988 19.645498 38.18819Q19.645498 38.266506 19.676874 38.29783Q19.70825 38.34482 19.818066 38.407467L19.818066 38.548428ZM21.073109 40.699345L19.692562 40.699345L19.692562 41.68608L19.378801 41.68608L19.378801 40.699345L16.649086 40.699345Q16.256884 40.699345 16.100004 40.808983Q15.958812 40.93428 15.958812 41.12223Q15.958812 41.26319 16.05294 41.404156Q16.147068 41.545116 16.335325 41.62343L16.335325 41.81138Q15.880372 41.654755 15.66074 41.357166Q15.441107 41.05958 15.441107 40.74633Q15.441107 40.54272 15.550923 40.339108Q15.66074 40.135494 15.880372 40.04152Q16.100004 39.947544 16.554956 39.947544L19.378801 39.947544L19.378801 39.28972L19.519993 39.28972Q19.62981 39.54032 19.86513 39.79092Q20.10045 40.057182 20.4299 40.276455Q20.602467 40.37043 21.073109 40.55838L21.073109 40.699345Z" fill-rule="nonzero"/></svg>