<svg fill="none" height="68" preserveAspectRatio="none" stroke-linecap="square" stroke-miterlimit="10" viewBox="0 0 49 68" width="49" xmlns="http://www.w3.org/2000/svg" xmlns:xlink="http://www.w3.org/1999/xlink"><clipPath id="a"><path d="m0 0h49v68h-49z"/></clipPath><path clip-path="url(#a)" d="m-539.02374-364.01797h1127.04748v796.03594h-1127.04748z" fill="none"/><path clip-path="url(#a)" d="m.6709369 8.603489c0-4.3821283 3.5562827-7.93454506 7.9431801-7.93454506h31.771766c2.106663 0 4.127041.83595856 5.616677 2.32397436 1.489635 1.4880157 2.326503 3.5061987 2.326503 5.6105707v50.793129c0 4.382126-3.556283 7.934542-7.94318 7.934542h-31.771766c-4.3868974 0-7.9431801-3.552416-7.9431801-7.934542z" fill="#156082" fill-rule="evenodd"/><path d="m.6709369 8.603489c0-4.3821283 3.5562827-7.93454506 7.9431801-7.93454506h31.771766c2.106663 0 4.127041.83595856 5.616677 2.32397436 1.489635 1.4880157 2.326503 3.5061987 2.326503 5.6105707v50.793129c0 4.382126-3.556283 7.934542-7.94318 7.934542h-31.771766c-4.3868974 0-7.9431801-3.552416-7.9431801-7.934542z" style="stroke:#082836;stroke-width:1.337984;stroke-miterlimit:800;stroke-linecap:butt;fill-rule:evenodd;clip-path:url(#a)"/><g fill="#fff"><path clip-path="url(#a)" d="m25.833483 20.855244q.611833.203722-.203943.407444-.40789 1.018613-.878531 1.990213h3.623934l.454952-.454458.768713.705194q.611834.611168-.251008.517142-.360824-.062683-.611833.250736l-1.333482 1.379045q-.251007.094025-.141192-.15671l1.223665-1.9432h-2.400266v1.488742q0 1.62978 1.270728 3.557311 1.066787 1.582767 3.012103 2.601381-.768715.15671-.925594.564154-1.364859-.924588-2.337515-2.44467-.862843-1.42606-1.066786-2.961815-.156881 1.990213-1.129538 3.259561-1.223667 1.629782-3.41999 2.350647-.298073.047013-.094128-.156709 1.788435-.908917 2.604212-1.943202 1.42761-1.770818 1.42761-4.622936v-1.692464h-.815776q-.972658 1.582767-1.788435 2.24095-.313761.156709-.203946-.094027 1.788435-2.350645 2.290453-5.140078zm-4.59659 3.055837h.611831l.658898-.65818.815777.611168q.313761.250736 0 .360434h-2.086506v4.121463l2.494394-.454458q.407888 0 .062753.203724l-4.28283 1.159651q-.203946.81489-.56477.266407l-.454952-.767878 2.086507-.313419v-4.21549h-2.039444v-.313422h2.039444v-3.212547l.862841.15671q.611834.109696-.203943.454458z"/><path clip-path="url(#a)" d="m19.495445 37.983612h2.400267l5.412368 6.644493v-5.108738q0-.814887-.172567-1.018612-.251009-.266405-.768715-.266405h-.313758v-.250738h3.09054v.250738h-.313761q-.564769 0-.800089.32909-.141192.219393-.141192.955927v7.459383h-.235321l-5.835945-7.130293v5.453499q0 .814892.172568 1.018612.251009.282078.768714.282078h.313759v.235064h-3.09054v-.235064h.313761q.564768 0 .800089-.344761.141191-.20372.141191-.955929v-6.158691q-.3922-.438785-.596144-.579825-.188256-.15671-.580457-.28208-.188255-.04701-.564768-.04701z"/></g></svg>