<svg version="1.1" viewBox="0.0 0.0 49.0 68.0" fill="none" stroke="none" stroke-linecap="square" stroke-miterlimit="10" preserveAspectRatio="none" width="49" height="68" xmlns:xlink="http://www.w3.org/1999/xlink" xmlns="http://www.w3.org/2000/svg"><clipPath id="id_0"><path d="M0 0L49.0 0L49.0 68.0L0 68.0L0 0Z" clip-rule="nonzero"/></clipPath><path fill="#000000" fill-opacity="0.0" clip-path="url(#id_0)" d="M-539.02374 -363.80237L588.02374 -363.80237L588.02374 431.80237L-539.02374 431.80237Z" fill-rule="evenodd"/><path fill="#156082" clip-path="url(#id_0)" d="M0.6709369 8.6005125L0.6709369 8.6005125C0.6709369 4.220758 4.2272196 0.67026544 8.614117 0.67026544L40.385883 0.67026544L40.385883 0.67026544C42.492546 0.67026544 44.512924 1.5057712 46.00256 2.992981C47.492195 4.4801908 48.329063 6.49728 48.329063 8.6005125L48.329063 59.399487C48.329063 63.779243 44.77278 67.329735 40.385883 67.329735L8.614117 67.329735C4.2272196 67.329735 0.6709369 63.779243 0.6709369 59.399487Z" fill-rule="evenodd"/><path stroke="#082836" stroke-width="1.3376211447112751" stroke-miterlimit="800.0" stroke-linecap="butt" clip-path="url(#id_0)" d="M0.6709369 8.6005125L0.6709369 8.6005125C0.6709369 4.220758 4.2272196 0.67026544 8.614117 0.67026544L40.385883 0.67026544L40.385883 0.67026544C42.492546 0.67026544 44.512924 1.5057712 46.00256 2.992981C47.492195 4.4801908 48.329063 6.49728 48.329063 8.6005125L48.329063 59.399487C48.329063 63.779243 44.77278 67.329735 40.385883 67.329735L8.614117 67.329735C4.2272196 67.329735 0.6709369 63.779243 0.6709369 59.399487Z" fill-rule="evenodd"/><path fill="#ffffff" clip-path="url(#id_0)" d="M22.986107 25.983942L22.986107 26.876703L26.013895 26.876703Q26.013895 25.827316 25.966831 25.263468L27.112057 25.670692L26.751232 25.983942L26.751232 26.876703L28.320034 26.876703L29.041683 26.297192L29.935902 27.23694L26.751232 27.23694L26.751232 28.959812L28.99462 28.959812L29.77902 28.333313L30.720303 29.335712L20.005383 29.335712Q19.330797 29.335712 18.860155 29.492336L18.326763 28.959812L22.24877 28.959812L22.24877 27.23694L20.946663 27.23694Q20.366207 27.29959 19.895565 27.346577L19.377861 26.876703L22.24877 26.876703Q22.24877 25.889967 22.201706 25.200817L23.346931 25.670692L22.986107 25.983942ZM26.170776 20.768335Q25.65307 20.768335 25.119678 20.877972L24.649036 20.408098L28.320034 20.408098L28.680859 19.938223L29.418196 20.517735L29.041683 20.830984L29.041683 21.770733Q29.041683 22.177958 29.104437 22.553858L28.320034 22.804457L28.320034 22.44422L25.747198 22.44422L25.747198 23.963482Q25.747198 24.52733 26.21784 24.480343L28.571043 24.480343Q28.99462 24.417694 29.104437 24.261068Q29.418196 24.104443 29.935902 24.574318Q29.982965 25.15383 28.790676 25.044193L26.013895 25.044193Q25.072615 25.106842 25.072615 24.057457L25.072615 23.180357Q25.072615 22.491207 25.025549 21.708084L25.747198 22.083982L28.320034 22.083982L28.320034 20.768335L26.170776 20.768335ZM20.836847 20.768335Q20.272078 20.768335 19.738686 20.877972L19.330797 20.408098L22.876291 20.408098L23.299868 20.047861L23.974453 20.67436L23.613628 20.92496L23.613628 21.50447Q23.613628 22.177958 23.660692 22.553858L22.876291 22.804457L22.876291 22.44422L20.366207 22.44422L20.366207 23.963482Q20.366207 24.52733 20.8996 24.480343L23.03317 24.480343Q23.50381 24.417694 23.692068 24.323719Q23.880323 24.21408 24.194084 24.433355Q24.507845 24.636969 24.39803 24.84058Q24.288212 25.044193 23.299868 25.044193L20.523087 25.044193Q19.644558 25.106842 19.644558 24.261068L19.644558 23.227345Q19.644558 22.553858 19.581806 21.770733L20.319143 22.083982L22.876291 22.083982L22.876291 20.768335L20.836847 20.768335ZM26.013895 28.959812L26.013895 27.23694L22.986107 27.23694L22.986107 28.959812L26.013895 28.959812ZM25.966831 29.586311Q27.472881 30.0092 28.649483 30.510399Q29.826086 30.995935 29.904526 31.46581Q29.982965 31.935684 29.794708 32.123634Q29.62214 32.311584 29.198565 31.888697Q28.790676 31.46581 27.974897 30.948948Q27.15912 30.432087 25.90408 29.805588L25.966831 29.586311ZM22.986107 30.322449Q20.476023 31.685085 18.546394 32.15496L18.483643 31.935684Q19.487677 31.52846 20.664278 30.870636Q21.840881 30.21281 22.625282 29.492336L23.456747 30.322449L22.986107 30.322449Z" fill-rule="nonzero"/><path fill="#ffffff" clip-path="url(#id_0)" d="M22.825733 37.77779L22.825733 40.847637L22.590412 40.847637Q22.464909 39.954876 22.151148 39.43801Q21.853075 38.92115 21.288307 38.623566Q20.739225 38.310314 20.127394 38.310314Q19.452808 38.310314 19.013542 38.7332Q18.574278 39.140427 18.574278 39.657288Q18.574278 40.064514 18.840975 40.393425Q19.248863 40.894623 20.770601 41.709072Q22.009956 42.366898 22.464909 42.727135Q22.91986 43.08737 23.17087 43.572906Q23.421879 44.04278 23.421879 44.575306Q23.421879 45.577705 22.637478 46.313843Q21.853075 47.034317 20.62941 47.034317Q20.23721 47.034317 19.90776 46.97167Q19.703815 46.940342 19.060606 46.73673Q18.417397 46.533115 18.260517 46.533115Q18.08795 46.533115 17.99382 46.62709Q17.899693 46.721066 17.852629 47.034317L17.617308 47.034317L17.617308 43.995796L17.852629 43.995796Q18.025196 44.951206 18.30758 45.42108Q18.605654 45.890957 19.186111 46.204205Q19.782257 46.517456 20.488218 46.517456Q21.303995 46.517456 21.774635 46.094566Q22.245275 45.656017 22.245275 45.076508Q22.245275 44.747593 22.072708 44.418682Q21.90014 44.08977 21.507938 43.792183Q21.256931 43.604233 20.111706 42.977734Q18.982166 42.33557 18.495838 41.95967Q18.025196 41.56811 17.774189 41.1139Q17.52318 40.659687 17.52318 40.1115Q17.52318 39.15609 18.260517 38.466938Q18.997854 37.77779 20.127394 37.77779Q20.833355 37.77779 21.617756 38.122364Q21.97858 38.29465 22.13546 38.29465Q22.30803 38.29465 22.417845 38.200676Q22.52766 38.091038 22.590412 37.77779L22.825733 37.77779ZM26.926558 38.466938L26.926558 41.95967L28.871874 41.95967Q29.640587 41.95967 29.891596 41.7404Q30.23673 41.44281 30.268108 40.67535L30.519115 40.67535L30.519115 43.760857L30.268108 43.760857Q30.173979 43.118694 30.079851 42.930748Q29.970036 42.69581 29.703339 42.57051Q29.436642 42.44521 28.871874 42.44521L26.926558 42.44521L26.926558 45.358433Q26.926558 45.937943 26.973623 46.078907Q27.036375 46.204205 27.161879 46.282516Q27.30307 46.34517 27.663895 46.34517L29.169947 46.34517Q29.922972 46.34517 30.25242 46.251194Q30.597555 46.141556 30.911316 45.828304Q31.319204 45.42108 31.742783 44.606632L31.99379 44.606632L31.240765 46.830704L24.400785 46.830704L24.400785 46.595768L24.714546 46.595768Q25.028307 46.595768 25.310692 46.439144Q25.530325 46.329506 25.593077 46.125893Q25.671516 45.92228 25.671516 45.264458L25.671516 39.531986Q25.671516 38.686214 25.49895 38.4826Q25.263628 38.232002 24.714546 38.232002L24.400785 38.232002L24.400785 37.981403L31.240765 37.981403L31.334892 39.92355L31.083885 39.92355Q30.942692 39.21874 30.770124 38.96814Q30.613243 38.701878 30.283796 38.560913Q30.0171 38.466938 29.358202 38.466938L26.926558 38.466938Z" fill-rule="nonzero"/></svg>