<svg version="1.1" viewBox="0.0 0.0 49.0 68.0" fill="none" stroke="none" stroke-linecap="square" stroke-miterlimit="10" preserveAspectRatio="none" width="49" height="68" xmlns:xlink="http://www.w3.org/1999/xlink" xmlns="http://www.w3.org/2000/svg"><clipPath id="id_0"><path d="M0 0L49.0 0L49.0 68.0L0 68.0L0 0Z" clip-rule="nonzero"/></clipPath><path fill="#000000" fill-opacity="0.0" clip-path="url(#id_0)" d="M-539.02374 -364.01797L588.02374 -364.01797L588.02374 432.01797L-539.02374 432.01797Z" fill-rule="evenodd"/><path fill="#156082" clip-path="url(#id_0)" d="M40.385883 0.66894394L40.385883 0.66894394C44.77278 0.66894394 48.329063 4.2213607 48.329063 8.603489L48.329063 59.396618C48.329063 61.500988 47.492195 63.519173 46.00256 65.00719C44.512924 66.4952 42.492546 67.33116 40.385883 67.33116L8.614117 67.33116C4.2272196 67.33116 0.6709369 63.778744 0.6709369 59.396618L0.6709369 8.603489C0.6709369 4.2213607 4.2272196 0.66894394 8.614117 0.66894394Z" fill-rule="evenodd"/><path stroke="#082836" stroke-width="1.3379835665024074" stroke-miterlimit="800.0" stroke-linecap="butt" clip-path="url(#id_0)" d="M40.385883 0.66894394L40.385883 0.66894394C44.77278 0.66894394 48.329063 4.2213607 48.329063 8.603489L48.329063 59.396618C48.329063 61.500988 47.492195 63.519173 46.00256 65.00719C44.512924 66.4952 42.492546 67.33116 40.385883 67.33116L8.614117 67.33116C4.2272196 67.33116 0.6709369 63.778744 0.6709369 59.396618L0.6709369 8.603489C0.6709369 4.2213607 4.2272196 0.66894394 8.614117 0.66894394Z" fill-rule="evenodd"/><path fill="#ffffff" clip-path="url(#id_0)" d="M25.842268 26.35262Q26.579605 29.941273 29.08969 30.082312L29.08969 29.596512L28.60336 29.596512Q28.179783 29.142054 28.556295 29.142054L33.607838 29.142054L33.325455 29.659195L33.325455 32.025513L33.607838 32.244904L33.262703 32.730705Q33.074448 32.9501 33.011696 32.589664L28.744553 32.589664Q28.320974 32.13521 28.697487 32.13521L29.08969 32.13521L29.08969 31.539711L26.799236 31.539711Q26.658045 31.539711 26.658045 31.68075L26.658045 32.762047Q26.658045 33.12248 26.909054 33.15382L27.991528 33.373215Q28.069967 33.435898 27.991528 33.46724L26.909054 33.46724Q26.720797 33.46724 26.658045 33.60828Q26.54823 33.859016 26.328596 33.60828Q26.234468 33.51425 26.234468 32.98144L26.234468 31.492699Q26.234468 31.069582 26.658045 31.069582L29.08969 31.069582L29.08969 30.55244Q26.234468 30.36439 25.701075 26.383963Q25.73245 26.242924 25.842268 26.35262ZM32.870502 28.750278Q32.697933 28.954 32.619495 28.750278L32.619495 27.230194L30.893812 27.230194L30.893812 27.684652L31.286013 28.076427L30.925188 28.577898Q30.752619 28.78162 30.67418 28.577898L30.67418 27.230194L28.744553 27.230194L29.08969 28.78162Q29.121065 29.09504 28.979872 28.891317L27.991528 26.180239Q27.395382 25.992188 27.787582 25.819807L28.383728 25.475046L28.634735 26.775736L30.67418 26.775736L30.67418 25.56907L30.893812 25.56907L30.893812 26.775736L32.619495 26.775736L32.619495 25.506388L32.839127 25.506388L32.839127 27.731665L33.29408 28.186123L32.870502 28.750278ZM30.438858 29.596512L29.30932 29.596512L29.30932 32.13521L30.438858 32.13521L30.438858 29.596512ZM31.740965 29.596512L30.642803 29.596512L30.642803 32.13521L31.740965 32.13521L31.740965 29.596512ZM33.12151 32.13521L33.12151 29.596512L31.944908 29.596512L31.944908 32.13521L33.12151 32.13521ZM32.054726 34.454514L32.274357 34.454514L32.274357 37.040222Q33.262703 37.463337 34.062794 37.66706L33.717655 38.403595Q33.545086 38.65433 33.46665 38.058834Q32.933254 37.83944 32.274357 37.52602L32.274357 41.193027L32.79206 41.72584L32.305733 42.399693Q32.133163 42.603416 32.054726 42.399693L32.054726 37.416325Q31.14482 37.040222 30.078033 36.25667L26.014835 36.25667Q25.591259 35.802216 25.98346 35.802216L29.513266 35.802216Q28.744553 35.065678 28.320974 34.42317Q28.179783 34.14109 28.415104 34.313473Q29.199505 35.128365 30.156473 35.802216L30.81537 35.802216L30.642803 36.146976Q31.207571 36.53875 32.054726 36.930527L32.054726 34.454514ZM29.591705 40.848267L30.10941 41.36541L29.623081 42.03926Q29.450514 42.258656 29.372072 42.03926L29.372072 39.672943L26.658045 39.672943L26.658045 41.302727L27.191437 41.835537L26.68942 42.49372Q26.516853 42.71311 26.438412 42.49372L26.438412 36.96187L26.658045 36.96187L26.658045 39.218487L29.372072 39.218487L29.372072 37.134247L29.591705 37.134247L29.591705 39.218487L31.709589 39.218487L31.599771 39.813984Q31.427204 40.09606 31.348764 39.672943L29.591705 39.672943L29.591705 40.848267Z" fill-rule="nonzero"/><path fill="#ffffff" clip-path="url(#id_0)" d="M18.406143 22.141207L16.60202 22.141207Q16.021564 22.141207 15.880372 22.282246Q15.676428 22.454626 15.676428 22.799389L15.676428 23.034452L15.5038595 23.034452L15.5038595 20.386059L15.676428 20.386059L15.676428 20.621124Q15.676428 21.012897 15.927436 21.185278Q16.068628 21.263634 16.60202 21.263634L20.602467 21.263634Q21.198612 21.263634 21.339804 21.153936Q21.52806 20.965885 21.52806 20.621124L21.52806 20.386059L21.700628 20.386059L21.700628 22.65835Q21.700628 23.48891 21.52806 23.95904Q21.355492 24.44484 20.947603 24.773932Q20.555403 25.103022 19.990635 25.103022Q19.23761 25.103022 18.75128 24.60155Q18.28064 24.100079 18.28064 23.191162Q18.28064 22.97177 18.312016 22.705362Q18.343391 22.438955 18.406143 22.141207ZM18.67284 22.141207Q18.625776 22.391943 18.5944 22.579994Q18.578712 22.768047 18.578712 22.893414Q18.578712 23.379213 18.939537 23.723976Q19.31605 24.068737 19.896505 24.068737Q20.304396 24.068737 20.64953 23.896357Q20.994667 23.739647 21.167236 23.426228Q21.339804 23.128479 21.339804 22.752375Q21.339804 22.517311 21.245676 22.141207L18.67284 22.141207ZM19.818066 26.952562L18.876785 26.952562Q19.818066 27.469706 19.818066 28.03386Q19.818066 28.284595 19.661186 28.441305Q19.504305 28.613686 19.31605 28.613686Q19.127792 28.613686 19.002289 28.488317Q18.876785 28.36295 18.876785 28.20624Q18.876785 28.04953 19.033665 27.845808Q19.206234 27.642086 19.206234 27.54806Q19.206234 27.469706 19.112104 27.375679Q18.92385 27.171957 18.484585 26.952562L16.476517 26.952562Q16.13138 26.952562 15.958812 27.030918Q15.833308 27.093601 15.73918 27.23464Q15.66074 27.39135 15.66074 27.673428L15.5038595 27.673428L15.5038595 25.542175L15.66074 25.542175Q15.66074 25.855595 15.7705555 26.012304Q15.848996 26.122002 16.005877 26.169014Q16.084316 26.200356 16.44514 26.200356L18.076694 26.200356Q18.798344 26.200356 18.939537 26.169014Q19.080729 26.137672 19.14348 26.059317Q19.206234 25.980963 19.206234 25.855595Q19.206234 25.714556 19.14348 25.542175L19.300362 25.495163L19.818066 26.764511L19.818066 26.952562ZM18.108072 29.550898Q17.182478 29.535227 16.649086 29.989685Q16.115692 30.459814 16.115692 31.070982Q16.115692 31.478428 16.335325 31.776176Q16.570644 32.089596 17.119726 32.29332L17.025599 32.434357Q16.398077 32.340332 15.880372 31.870201Q15.378355 31.415743 15.378355 30.726221Q15.378355 29.974014 15.958812 29.425531Q16.554956 28.892717 17.543303 28.892717Q18.625776 28.892717 19.221922 29.441202Q19.818066 29.989685 19.818066 30.820248Q19.818066 31.52544 19.347425 31.979898Q18.892473 32.434357 18.108072 32.434357L18.108072 29.550898ZM18.374767 29.550898L18.374767 31.478428Q18.782656 31.462757 18.955225 31.384401Q19.206234 31.274706 19.347425 31.03964Q19.488617 30.820248 19.488617 30.569511Q19.488617 30.193409 19.190544 29.89566Q18.908161 29.597912 18.374767 29.550898ZM19.818066 35.693565L18.390455 35.693565L18.390455 35.55253Q19.06504 35.380146 19.300362 35.09807Q19.551369 34.831665 19.551369 34.408546Q19.551369 34.095127 19.378801 33.891403Q19.206234 33.703354 19.002289 33.703354Q18.75128 33.703354 18.563025 33.84439Q18.374767 33.98543 18.170824 34.424217L17.841375 35.082397Q17.386423 36.006985 16.649086 36.006985Q16.068628 36.006985 15.723492 35.5682Q15.378355 35.145084 15.378355 34.61227Q15.378355 34.236168 15.519547 33.734695Q15.550923 33.59366 15.550923 33.48396Q15.550923 33.389935 15.441107 33.32725L15.441107 33.17054L16.931469 33.17054L16.931469 33.32725Q16.288261 33.452618 15.958812 33.81305Q15.645052 34.17348 15.645052 34.62794Q15.645052 34.94136 15.833308 35.12941Q16.021564 35.333134 16.272573 35.333134Q16.586332 35.333134 16.805965 35.11374Q17.025599 34.89435 17.355045 34.220497Q17.684494 33.562313 17.95119 33.358593Q18.2022 33.15487 18.610088 33.15487Q19.127792 33.15487 19.472929 33.49963Q19.818066 33.86006 19.818066 34.424217Q19.818066 34.674953 19.70825 35.019714Q19.645498 35.25478 19.645498 35.333134Q19.645498 35.411488 19.676874 35.442833Q19.70825 35.489845 19.818066 35.55253L19.818066 35.693565ZM18.108072 37.344177Q17.182478 37.328506 16.649086 37.782963Q16.115692 38.253094 16.115692 38.86426Q16.115692 39.271706 16.335325 39.569454Q16.570644 39.882874 17.119726 40.086597L17.025599 40.227634Q16.398077 40.13361 15.880372 39.66348Q15.378355 39.209023 15.378355 38.519497Q15.378355 37.767292 15.958812 37.218807Q16.554956 36.685993 17.543303 36.685993Q18.625776 36.685993 19.221922 37.234478Q19.818066 37.782963 19.818066 38.613525Q19.818066 39.318718 19.347425 39.773174Q18.892473 40.227634 18.108072 40.227634L18.108072 37.344177ZM18.374767 37.344177L18.374767 39.271706Q18.782656 39.256035 18.955225 39.17768Q19.206234 39.06798 19.347425 38.832916Q19.488617 38.613525 19.488617 38.36279Q19.488617 37.986687 19.190544 37.68894Q18.908161 37.39119 18.374767 37.344177ZM18.92385 41.9981Q19.818066 42.73464 19.818066 43.40849Q19.818066 43.75325 19.645498 43.988316Q19.472929 44.23905 19.080729 44.39576Q18.798344 44.489788 18.233576 44.489788L16.44514 44.489788Q16.05294 44.489788 15.911748 44.55247Q15.801931 44.599483 15.723492 44.70918Q15.66074 44.83455 15.66074 45.132298L15.5038595 45.132298L15.5038595 43.06373L15.66074 43.06373L15.66074 43.142082Q15.66074 43.43983 15.754868 43.549526Q15.848996 43.674896 16.021564 43.72191Q16.084316 43.73758 16.44514 43.73758L18.170824 43.73758Q18.735592 43.73758 18.9866 43.58087Q19.253298 43.43983 19.253298 43.09507Q19.253298 42.546585 18.657152 41.9981L16.44514 41.9981Q16.021564 41.9981 15.927436 42.060787Q15.786243 42.12347 15.723492 42.233166Q15.66074 42.342865 15.66074 42.687626L15.5038595 42.687626L15.5038595 40.619057L15.66074 40.619057L15.66074 40.71308Q15.66074 41.0265 15.81762 41.1362Q15.990188 41.245895 16.44514 41.245895L17.998255 41.245895Q18.766968 41.245895 18.92385 41.214554Q19.096416 41.183212 19.14348 41.10486Q19.206234 41.04217 19.206234 40.916805Q19.206234 40.79144 19.14348 40.619057L19.300362 40.540703L19.818066 41.81005L19.818066 41.9981L18.92385 41.9981ZM21.073109 46.675888L19.692562 46.675888L19.692562 47.66316L19.378801 47.66316L19.378801 46.675888L16.649086 46.675888Q16.256884 46.675888 16.100004 46.785583Q15.958812 46.91095 15.958812 47.099003Q15.958812 47.24004 16.05294 47.38108Q16.147068 47.522118 16.335325 47.600475L16.335325 47.788525Q15.880372 47.631817 15.66074 47.33407Q15.441107 47.03632 15.441107 46.7229Q15.441107 46.519176 15.550923 46.315453Q15.66074 46.111732 15.880372 46.017704Q16.100004 45.92368 16.554956 45.92368L19.378801 45.92368L19.378801 45.2655L19.519993 45.2655Q19.62981 45.516235 19.86513 45.76697Q20.10045 46.03338 20.4299 46.25277Q20.602467 46.346798 21.073109 46.534847L21.073109 46.675888Z" fill-rule="nonzero"/></svg>