<svg version="1.1" viewBox="0.0 0.0 49.0 68.0" fill="none" stroke="none" stroke-linecap="square" stroke-miterlimit="10" preserveAspectRatio="none" width="49" height="68" xmlns:xlink="http://www.w3.org/1999/xlink" xmlns="http://www.w3.org/2000/svg"><clipPath id="id_0"><path d="M0 0L49.0 0L49.0 68.0L0 68.0L0 0Z" clip-rule="nonzero"/></clipPath><path fill="#000000" fill-opacity="0.0" clip-path="url(#id_0)" d="M-539.02374 -364.01797L588.02374 -364.01797L588.02374 432.01797L-539.02374 432.01797Z" fill-rule="evenodd"/><path fill="#156082" clip-path="url(#id_0)" d="M0.6709369 8.603489L0.6709369 8.603489C0.6709369 4.2213607 4.2272196 0.66894394 8.614117 0.66894394L40.385883 0.66894394L40.385883 0.66894394C42.492546 0.66894394 44.512924 1.5049025 46.00256 2.9929183C47.492195 4.480934 48.329063 6.499117 48.329063 8.603489L48.329063 59.396618C48.329063 63.778744 44.77278 67.33116 40.385883 67.33116L8.614117 67.33116C4.2272196 67.33116 0.6709369 63.778744 0.6709369 59.396618Z" fill-rule="evenodd"/><path stroke="#082836" stroke-width="1.3379835665024074" stroke-miterlimit="800.0" stroke-linecap="butt" clip-path="url(#id_0)" d="M0.6709369 8.603489L0.6709369 8.603489C0.6709369 4.2213607 4.2272196 0.66894394 8.614117 0.66894394L40.385883 0.66894394L40.385883 0.66894394C42.492546 0.66894394 44.512924 1.5049025 46.00256 2.9929183C47.492195 4.480934 48.329063 6.499117 48.329063 8.603489L48.329063 59.396618C48.329063 63.778744 44.77278 67.33116 40.385883 67.33116L8.614117 67.33116C4.2272196 67.33116 0.6709369 63.778744 0.6709369 59.396618Z" fill-rule="evenodd"/><path fill="#ffffff" clip-path="url(#id_0)" d="M20.93882 25.995321L20.93882 27.12363Q20.93882 27.578089 20.876068 27.938522L28.735767 27.938522L29.394665 27.28034L30.210442 27.891508Q30.524202 28.142244 30.210442 28.23627L28.422007 28.23627L29.096592 28.753412Q29.237783 29.004147 28.578888 28.910122L27.308157 29.975748Q28.484758 30.743626 30.414387 31.15107Q29.645674 31.448818 29.50448 31.762238Q26.74339 30.790638 25.22165 28.23627L23.182207 28.23627L23.182207 30.586916L26.084492 30.132458Q26.382565 30.226482 26.131556 30.33618L21.80166 31.448818Q21.754597 32.059986 21.346708 31.652542L20.781939 30.900335L22.507622 30.68094L22.507622 28.23627L20.829002 28.23627Q20.530931 30.226482 18.538551 31.762238Q18.334606 31.809252 18.428734 31.605528Q20.264235 29.662329 20.264235 27.374367L20.264235 25.180431L21.032948 25.697573L28.218063 25.697573L28.782831 25.133417L29.50448 25.65056Q29.802553 25.901295 29.50448 25.995321L20.93882 25.995321ZM28.829895 23.613335Q28.578888 23.70736 28.735767 23.456625L29.19072 22.438011L24.90789 22.438011L24.90789 25.086405Q24.248993 25.697573 24.248993 25.133417L24.248993 22.438011L20.06029 22.438011Q20.013226 23.252901 19.762218 23.70736Q19.558273 24.114805 19.103321 24.114805Q18.789558 24.114805 18.789558 23.864069Q18.789558 23.660347 18.993504 23.456625Q19.762218 22.641733 19.762218 21.670134Q19.856346 21.419397 19.966162 21.670134Q20.013226 21.826843 20.06029 22.124592L24.248993 22.124592L24.248993 21.105978L20.170107 21.105978L20.170107 20.80823L27.35522 20.80823L28.014118 20.15005L28.829895 20.761217Q29.143656 21.011953 28.829895 21.105978L24.90789 21.105978L24.90789 22.124592L29.096592 22.124592L29.394665 21.717146L30.46145 22.485023Q30.869339 22.939482 29.849617 22.845457L28.829895 23.613335ZM25.425594 24.882683L25.425594 24.569263L27.668982 24.569263L28.07687 24.161818L28.688704 24.631947Q28.829895 24.835669 28.578888 24.882683L25.425594 24.882683ZM25.362843 23.754372L25.362843 23.456625L27.261093 23.456625L27.668982 23.04918L28.280815 23.503637Q28.422007 23.70736 28.171 23.754372L25.362843 23.754372ZM19.809282 24.882683L19.809282 24.569263L22.460558 24.569263L22.868446 24.161818L23.48028 24.631947Q23.63716 24.835669 23.38615 24.882683L19.809282 24.882683ZM20.21717 23.754372L20.21717 23.456625L22.413494 23.456625L22.821383 23.04918L23.433216 23.503637Q23.590096 23.70736 23.323399 23.754372L20.21717 23.754372ZM21.754597 27.170645L21.754597 26.872896L26.900269 26.872896L27.465038 26.30874L28.171 26.810211Q28.484758 27.076618 28.171 27.170645L21.754597 27.170645ZM25.566786 28.23627Q26.131556 29.113844 27.104214 29.819038L28.280815 28.23627L25.566786 28.23627Z" fill-rule="nonzero"/><path fill="#ffffff" clip-path="url(#id_0)" d="M23.205372 38.469414L23.205372 41.96404L25.150686 41.96404Q25.9194 41.96404 26.170408 41.744648Q26.515545 41.4469 26.54692 40.67902L26.797928 40.67902L26.797928 43.7662L26.54692 43.7662Q26.452793 43.12369 26.358664 42.93564Q26.248848 42.700577 25.982151 42.575207Q25.715456 42.44984 25.150686 42.44984L23.205372 42.44984L23.205372 45.36464Q23.205372 45.944466 23.252436 46.085506Q23.315187 46.210873 23.440691 46.289227Q23.581884 46.35191 23.942709 46.35191L25.44876 46.35191Q26.201784 46.35191 26.531233 46.257885Q26.87637 46.14819 27.19013 45.83477Q27.598019 45.427322 28.021595 44.612434L28.272604 44.612434L27.519577 46.83771L20.6796 46.83771L20.6796 46.602646L20.99336 46.602646Q21.30712 46.602646 21.589504 46.44594Q21.809137 46.33624 21.87189 46.13252Q21.950329 45.928795 21.950329 45.270615L21.950329 39.535038Q21.950329 38.68881 21.777761 38.485085Q21.54244 38.23435 20.99336 38.23435L20.6796 38.23435L20.6796 37.983612L27.519577 37.983612L27.613707 39.926815L27.362698 39.926815Q27.221506 39.22162 27.048937 38.970886Q26.892057 38.70448 26.562609 38.56344Q26.295912 38.469414 25.637014 38.469414L23.205372 38.469414Z" fill-rule="nonzero"/></svg>