<svg version="1.1" viewBox="0.0 0.0 49.0 68.0" fill="none" stroke="none" stroke-linecap="square" stroke-miterlimit="10" preserveAspectRatio="none" width="49" height="68" xmlns:xlink="http://www.w3.org/1999/xlink" xmlns="http://www.w3.org/2000/svg"><clipPath id="id_0"><path d="M0 0L49.0 0L49.0 68.0L0 68.0L0 0Z" clip-rule="nonzero"/></clipPath><path fill="#000000" fill-opacity="0.0" clip-path="url(#id_0)" d="M-539.02374 -364.01797L588.02374 -364.01797L588.02374 432.01797L-539.02374 432.01797Z" fill-rule="evenodd"/><path fill="#156082" clip-path="url(#id_0)" d="M0.6709369 8.603489L0.6709369 8.603489C0.6709369 4.2213607 4.2272196 0.66894394 8.614117 0.66894394L40.385883 0.66894394L40.385883 0.66894394C42.492546 0.66894394 44.512924 1.5049025 46.00256 2.9929183C47.492195 4.480934 48.329063 6.499117 48.329063 8.603489L48.329063 59.396618C48.329063 63.778744 44.77278 67.33116 40.385883 67.33116L8.614117 67.33116C4.2272196 67.33116 0.6709369 63.778744 0.6709369 59.396618Z" fill-rule="evenodd"/><path stroke="#082836" stroke-width="1.3379835665024074" stroke-miterlimit="800.0" stroke-linecap="butt" clip-path="url(#id_0)" d="M0.6709369 8.603489L0.6709369 8.603489C0.6709369 4.2213607 4.2272196 0.66894394 8.614117 0.66894394L40.385883 0.66894394L40.385883 0.66894394C42.492546 0.66894394 44.512924 1.5049025 46.00256 2.9929183C47.492195 4.480934 48.329063 6.499117 48.329063 8.603489L48.329063 59.396618C48.329063 63.778744 44.77278 67.33116 40.385883 67.33116L8.614117 67.33116C4.2272196 67.33116 0.6709369 63.778744 0.6709369 59.396618Z" fill-rule="evenodd"/><path fill="#ffffff" clip-path="url(#id_0)" d="M26.853205 26.15203L24.045048 26.15203Q24.81376 27.734798 25.770731 28.643715Q26.994396 27.781813 27.967054 26.669172L28.782831 27.28034Q28.986776 27.578089 28.218063 27.484064Q27.151278 28.189257 25.974676 28.847437Q27.716045 30.383192 29.645674 30.99436Q28.892647 31.198084 28.531822 31.605528Q24.656881 29.113844 23.684223 26.15203L21.80166 26.15203L21.80166 30.430206L25.425594 29.975748Q25.723667 30.069773 25.472658 30.226482L20.06029 31.30778Q19.966162 32.12267 19.652401 31.605528L19.103321 30.68094L21.142763 30.539902L21.142763 20.902256L21.895788 21.309702L26.696323 21.309702L26.994396 20.902256L27.716045 21.419397Q28.014118 21.670134 27.512102 21.77983L27.512102 26.559477Q26.853205 27.170645 26.853205 26.60649L26.853205 26.15203ZM21.80166 21.623121L21.80166 23.55065L26.853205 23.55065L26.853205 21.623121L21.80166 21.623121ZM21.80166 23.864069L21.80166 25.854282L26.853205 25.854282L26.853205 23.864069L21.80166 23.864069Z" fill-rule="nonzero"/><path fill="#ffffff" clip-path="url(#id_0)" d="M15.408345 37.983612L17.808613 37.983612L23.220984 44.628105L23.220984 39.519367Q23.220984 38.70448 23.048414 38.500755Q22.797405 38.23435 22.279701 38.23435L21.96594 38.23435L21.96594 37.983612L25.056482 37.983612L25.056482 38.23435L24.742722 38.23435Q24.177952 38.23435 23.942633 38.56344Q23.80144 38.782833 23.80144 39.519367L23.80144 46.97875L23.566118 46.97875L17.730173 39.848457L17.730173 45.301956Q17.730173 46.116848 17.90274 46.320568Q18.15375 46.602646 18.671455 46.602646L18.985214 46.602646L18.985214 46.83771L15.894674 46.83771L15.894674 46.602646L16.208435 46.602646Q16.773203 46.602646 17.008524 46.257885Q17.149715 46.054165 17.149715 45.301956L17.149715 39.143265Q16.757515 38.70448 16.553572 38.56344Q16.365314 38.40673 15.973114 38.28136Q15.784858 38.23435 15.408345 38.23435L15.408345 37.983612ZM28.03736 38.469414L28.03736 41.96404L29.982674 41.96404Q30.751387 41.96404 31.002396 41.744648Q31.347532 41.4469 31.378908 40.67902L31.629917 40.67902L31.629917 43.7662L31.378908 43.7662Q31.28478 43.12369 31.190653 42.93564Q31.080835 42.700577 30.81414 42.575207Q30.547443 42.44984 29.982674 42.44984L28.03736 42.44984L28.03736 45.36464Q28.03736 45.944466 28.084423 46.085506Q28.147175 46.210873 28.27268 46.289227Q28.413872 46.35191 28.774696 46.35191L30.280746 46.35191Q31.033772 46.35191 31.36322 46.257885Q31.708357 46.14819 32.022118 45.83477Q32.430008 45.427322 32.853584 44.612434L33.10459 44.612434L32.351566 46.83771L25.511587 46.83771L25.511587 46.602646L25.825348 46.602646Q26.139109 46.602646 26.421494 46.44594Q26.641125 46.33624 26.703876 46.13252Q26.782318 45.928795 26.782318 45.270615L26.782318 39.535038Q26.782318 38.68881 26.609749 38.485085Q26.374428 38.23435 25.825348 38.23435L25.511587 38.23435L25.511587 37.983612L32.351566 37.983612L32.445694 39.926815L32.194687 39.926815Q32.053493 39.22162 31.880926 38.970886Q31.724045 38.70448 31.394596 38.56344Q31.1279 38.469414 30.469004 38.469414L28.03736 38.469414Z" fill-rule="nonzero"/></svg>